<svg xmlns="http://www.w3.org/2000/svg" viewBox="0 0 200 200">
  <defs/>
  <g transform="matrix(.98994 0 0 .98995 -8.9 -11.7)">
    <path fill="#ffdbed" d="M144.7 13.4c-1 3.2-1.6 4-.5 8.5.5 1.7.3 1.5 1.4 1.7 4.3.3 6.3.5 10.1-1.8a38.5 38.5 0 01-38.5 40 38.5 38.5 0 0127.5-48.4z"/>
    <path fill="#734e30" d="M105.3 84.5a38 38 0 0112-22.7c-4.7 7-7 12.7-7.2 22.8h-4.8z"/>
    <path fill="#fec" d="M107.5 212.4A104.2 104.2 0 0133 177.6L59 98l-1.3-1.4-1.5-1.5 1.1-3.3a97.2 97.2 0 0118-32c.2 0 4 4.9 5.2 6.6 1.1 1.8 3 5.8 3.6 7.5a20 20 0 002.6 5.7 13 13 0 008.2 5c2 .3 29.2.1 31.1-.2 2.3-.4 4.6-1.9 6.3-3.5a14 14 0 003.4-6.4 43 43 0 019.1-14.9 105.3 105.3 0 0118.4 34l.5 1.5-1.2 1.3-1.6 1.6 26 79.6-2.8 3a102 102 0 01-76.6 31.7z"/>
    <ellipse cx="91.8" cy="130.8" fill="#333" stroke="#333" stroke-linecap="round" rx="3.8" ry="3.7"/>
    <ellipse cx="128.1" cy="130.9" fill="#333" stroke="#333" stroke-linecap="round" rx="3.8" ry="3.7"/>
    <path fill="none" stroke="#333" stroke-linecap="round" stroke-width="4" d="M135.6 149a25.7 25.6 0 01-25.6 25.6A25.7 25.6 0 0184.3 149"/>
    <g fill="none" stroke="#734e30" stroke-linecap="round" stroke-width=".8">
      <path d="M81.5 203.7v-.5c0-6.6 2-13 5.9-18.3M77.5 203.7c1-7.2 4.5-13.9 9.8-18.8" transform="matrix(1.21583 0 0 1.21557 11 -162.8)"/>
    </g>
    <g fill="none" stroke="#fec" stroke-width=".8">
      <path stroke-linecap="round" d="M18 280l21.5-65.4M37.2 212.3l2.3 2.3M144.7 280A84.4 84.4 0 0118 280M52.7 183a32 32 0 018 13.5M37.2 212.3A84.7 84.7 0 0152.7 183M70.8 203.7h-.2c-4.5 0-8.6-3-10-7.2M110 183a32 32 0 00-7.8 13.5M92 203.7h.1c4.6 0 8.6-3 10-7.2M144.7 280l-21.5-65.4M125.6 212.3l-2.4 2.3M125.6 212.3A84.7 84.7 0 00110 183" transform="matrix(1.21583 0 0 1.21557 11 -162.8)"/>
      <path d="M70.8 203.7H92" transform="matrix(1.21583 0 0 1.21557 11 -162.8)"/>
    </g>
    <g fill="#b3b3b3" stroke-width=".8">
      <path d="M118 36.6a31.1 36.9 4 00-1.2 3.8l34.5 1.5a46.3 38.8-58.5 001.9-3.7zM115.8 45a31.1 36.9 4 00-.5 3.8l13.6.6.4-3.8z"/>
      <path d="M129.3 45.6l-3.7 1.1 4.8 13.2a46.3 38.8-34.4 003.6-1.4zM135.7 37.6l-3.7 1.1 6.3 17.3a46.3 38.8-34.4 00.7-.5 46.3 38.8-34.4 002.5-1.8zM140.5 20.4l-9.8 13.2 4.6.2 8.3-11.1zM146.7 25l-6.7 9 4.6.1 5.2-6.9z"/>
    </g>
    <g fill="none" stroke="#ffdbed" stroke-linecap="round" stroke-width=".8">
      <path d="M119 151.8v1.4a31.6 31.6 0 01-31.6 31.6M87.4 184.8a31.6 31.6 0 0122.5-39.9M110 153.2a10.5 10.5 0 010-8.3M119 151.8a10.5 10.5 0 01-9 1.4" transform="matrix(1.21583 0 0 1.21557 11 -162.8)"/>
    </g>
  </g>
</svg>
