<svg xmlns="http://www.w3.org/2000/svg" viewBox="0 0 200 200">
  <defs/>
  <path fill="#fda800" d="M97 197.6A133.2 133.2 0 011.4 153L35 51.4l-1.8-1.8-1.8-1.8 1.4-4.3a124.3 124.3 0 0123-41 69 69 0 016.6 8.5 61 61 0 014.6 9.6c1 3.3 1.9 5.3 3.3 7.3 2.3 3.4 6.5 5.6 10.6 6.4 2.4.4 37.3.2 39.8-.3 2.8-.5 5.8-2.3 8-4.5a18 18 0 004.3-8.1 55.1 55.1 0 0111.7-19A134.7 134.7 0 01168 45.7l.7 2-1.7 1.7-2 2 33.4 101.8-3.7 4a130.4 130.4 0 01-97.9 40.4z"/>
  <g fill="none" stroke="#fda800" stroke-width=".6">
    <path stroke-linecap="round" d="M18 280l21.5-65.4M37.2 212.3l2.3 2.3M144.7 280A84.4 84.4 0 0118 280M52.7 183a32 32 0 018 13.5M37.2 212.3A84.7 84.7 0 0152.7 183M70.8 203.7h-.2c-4.5 0-8.6-3-10-7.2M110 183a32 32 0 00-7.8 13.5M92 203.7h.1c4.6 0 8.6-3 10-7.2M144.7 280l-21.5-65.4M125.6 212.3l-2.4 2.3M125.6 212.3A84.7 84.7 0 00110 183" transform="matrix(1.55493 0 0 1.55497 -26.5 -282.3)"/>
    <path d="M70.8 203.7H92" transform="matrix(1.55493 0 0 1.55497 -26.5 -282.3)"/>
  </g>
</svg>
