<svg xmlns="http://www.w3.org/2000/svg" viewBox="0 0 170.8 170.8">
  <defs/>
  <circle cx="85.9" cy="85.4" r="84.4" fill="#fdf6e3"/>
  <path fill="none" stroke="#000" stroke-linecap="round" d="M124.4-211.2v-42.2h42.2v42.2zm0-42.2v-63.3h63.3v63.3zm0 211v-168.8h168.8v168.8zm21-211a21.1 21.1 0 0121.2 21.1 21.1 21.1 0 01-21.1 21.1 21.1 21.1 0 01-21.1-21.1 21.1 21.1 0 0121-21.1m10.6-63.3a31.6 31.6 0 0131.7 31.7 31.6 31.6 0 01-31.7 31.6 31.6 31.6 0 01-31.6-31.6 31.6 31.6 0 0131.6-31.7m52.8 105.5a84.4 84.4 0 0184.4 84.4 84.4 84.4 0 01-84.4 84.4 84.4 84.4 0 01-84.4-84.4 84.4 84.4 0 0184.4-84.4m-42.2-21.1v-21.1h21v21.1zm10.5-21.1a10.6 10.6 0 0110.6 10.6 10.6 10.6 0 01-10.6 10.5 10.6 10.6 0 01-10.5-10.5 10.6 10.6 0 0110.5-10.6m10.6 42.2v-105.5h105.5v105.5zm52.7-105.5a52.8 52.7 0 0152.8 52.8 52.8 52.7 0 01-52.8 52.7 52.8 52.7 0 01-52.7-52.7 52.8 52.7 0 0152.7-52.8" opacity=".3"/>
  <path fill="#cb4b16" d="M82 64.6c.9-6.4 3.6-12.4 9.9-18.7A30.9 30.9 0 0086 64.6h-4z"/>
  <g fill="none" stroke="#cb4b16" stroke-linecap="round">
    <path d="M86 64.9v-.5c0-6.6 2-13 5.9-18.4M82 64.9c1-7.3 4.5-14 9.9-18.9"/>
  </g>
  <path fill="#859900" d="M114.4 6c-.7 2.7-1.3 3.3-.3 7.1.4 1.4.2 1.2 1.1 1.4 3.6.2 5.2.4 8.3-1.5a31.6 31.6 0 01-31.6 33 31.7 31.7 0 0122.5-40z"/>
  <g fill="#586e75">
    <path d="M92.5 25.2a25.6 30.3 4 00-1 3l28.4 1.4a31.9 38 31.5 001.5-3.1zM90.7 32.1a25.6 30.3 4 00-.4 3.1l11.1.6.4-3.2z"/>
    <path d="M101.8 32.6l-3 1 4 10.8a31.9 38 55.6 002.8-1.2zM107 26l-3 1 5.2 14.1a31.9 38 55.6 00.6-.3 31.9 38 55.6 002-1.5zM111 11.9l-8 10.8 3.7.2 6.8-9.2zM116.1 15.6l-5.5 7.4 3.8.2 4.3-5.7z"/>
  </g>
  <g fill="none" stroke="#859900" stroke-linecap="round">
    <path d="M123.5 13v1.4A31.6 31.6 0 0192 46M91.9 46a31.6 31.6 0 0122.5-40M114.5 14.3a10.5 10.5 0 010-8.2M123.5 13a10.5 10.5 0 01-9 1.3"/>
  </g>
  <g>
    <path fill="#b58900" d="M83.9 169.8a85.7 85.7 0 01-61.3-28.6L44 75.8 43 74.6l-1.2-1.2.9-2.7a80 80 0 0114.7-26.4c.2 0 3.4 4 4.3 5.5 1 1.5 2.5 4.8 3 6.1.7 2.2 1.2 3.4 2.1 4.8 1.5 2.1 4.2 3.5 6.8 4 1.6.3 24 .2 25.6-.1 1.8-.4 3.7-1.5 5.1-3 1.4-1.3 2-2.6 2.8-5.2a35.4 35.4 0 017.6-12.2 86.7 86.7 0 0115.1 28l.4 1.2-1 1-1.3 1.4 21.4 65.4-2.4 2.6a83.8 83.8 0 01-63 26z"/>
    <g fill="none" stroke="#b58900">
      <path stroke-linecap="round" d="M22.6 141.2L44 75.8M41.7 73.4l2.3 2.4M149.2 141.2a84.4 84.4 0 01-126.6 0M57.2 44.2a32 32 0 018 13.4M41.7 73.4a84.7 84.7 0 0115.5-29.2M75.3 64.9H75c-4.5 0-8.5-3-10-7.3M114.6 44.2a32 32 0 00-8 13.4M96.5 64.9h.2c4.5 0 8.5-3 10-7.3M149.2 141.2l-21.4-65.4M130.1 73.4l-2.3 2.4M130.1 73.4a84.7 84.7 0 00-15.5-29.2"/>
      <path d="M75.3 64.9h21.2"/>
    </g>
  </g>
  <g stroke="#073642" stroke-linecap="round">
    <ellipse cx="71" cy="102.7" fill="#073642" stroke-width="1.5" rx="3.1" ry="3"/>
    <ellipse cx="100.8" cy="102.7" fill="#073642" stroke-width="1.5" rx="3.1" ry="3"/>
    <path fill="none" stroke-width="4" d="M107 117.6a21.1 21.1 0 01-21.1 21.1 21.1 21.1 0 01-21.1-21"/>
  </g>
  <g fill="none" stroke-linecap="round">
    <circle cx="85.9" cy="85.4" r="84.4" stroke="#002b36" stroke-width="2"/>
    <path stroke="#000" d="M124.4-211.2v-42.2h42.2v42.2zm0-42.2v-63.3h63.3v63.3zm0 211v-168.8h168.8v168.8zm21-211a21.1 21.1 0 0121.2 21.1 21.1 21.1 0 01-21.1 21.1 21.1 21.1 0 01-21.1-21.1 21.1 21.1 0 0121-21.1m10.6-63.3a31.6 31.6 0 0131.7 31.7 31.6 31.6 0 01-31.7 31.6 31.6 31.6 0 01-31.6-31.6 31.6 31.6 0 0131.6-31.7m52.8 105.5a84.4 84.4 0 0184.4 84.4 84.4 84.4 0 01-84.4 84.4 84.4 84.4 0 01-84.4-84.4 84.4 84.4 0 0184.4-84.4m-42.2-21.1v-21.1h21v21.1zm10.5-21.1a10.6 10.6 0 0110.6 10.6 10.6 10.6 0 01-10.6 10.5 10.6 10.6 0 01-10.5-10.5 10.6 10.6 0 0110.5-10.6m10.6 42.2v-105.5h105.5v105.5zm52.7-105.5a52.8 52.7 0 0152.8 52.8 52.8 52.7 0 01-52.8 52.7 52.8 52.7 0 01-52.7-52.7 52.8 52.7 0 0152.7-52.8" opacity=".3"/>
  </g>
</svg>
