<svg xmlns="http://www.w3.org/2000/svg" viewBox="0 0 196 196">
  <defs/>
  <defs>
    <filter id="a" color-interpolation-filters="sRGB">
      <feFlood flood-color="#000" flood-opacity=".5" result="flood"/>
      <feComposite in="flood" in2="SourceGraphic" operator="in" result="composite1"/>
      <feGaussianBlur in="composite1" result="blur" stdDeviation="1"/>
      <feOffset dx="1" dy="1" result="offset"/>
      <feComposite in="SourceGraphic" in2="offset" result="composite2"/>
    </filter>
  </defs>
  <path fill="#fdf6e3" d="M0 0h196v196H0z"/>
  <g fill="none" stroke="#000" stroke-linecap="round">
    <path d="M204.3-338v-105.5h105.5V-338z" opacity=".3"/>
    <path d="M193.8-380.2a10.6 10.6 0 0110.5 10.5 10.6 10.6 0 01-10.5 10.6 10.6 10.6 0 01-10.6-10.6 10.6 10.6 0 0110.6-10.5" opacity=".3"/>
    <path d="M183.2-359.1v-21.1h21.1v21zM225.4-338a84.4 84.4 0 0184.4 84.4 84.4 84.4 0 01-84.4 84.4 84.4 84.4 0 01-84.4-84.4 84.4 84.4 0 0184.4-84.4M172.7-443.5a31.6 31.6 0 0131.6 31.6 31.6 31.6 0 01-31.6 31.7A31.6 31.6 0 01141-412a31.6 31.6 0 0131.7-31.6" opacity=".3"/>
    <path d="M162.1-380.2a21.1 21.1 0 0121.1 21 21.1 21.1 0 01-21 21.2 21.1 21.1 0 01-21.2-21.1 21.1 21.1 0 0121.1-21.1" opacity=".3"/>
    <path d="M141-169.2V-338h168.8v168.8zM141-380.2v-63.3h63.3v63.3zM141-338v-42.2h42.2v42.2zM204.3-338v-105.5h105.5V-338z" opacity=".3"/>
    <path d="M225.4-338a84.4 84.4 0 0184.4 84.4 84.4 84.4 0 01-84.4 84.4 84.4 84.4 0 01-84.4-84.4 84.4 84.4 0 0184.4-84.4" opacity=".3"/>
  </g>
  <g>
    <g filter="url(#a)" transform="translate(16.6 -126.8)">
      <path fill="none" stroke="#cb4b16" stroke-linecap="round" d="M86.8 204a31.6 31.6 0 01-16.2-27.6 31.6 31.6 0 01.1-3.4m5.4 31a31.6 31.6 0 01-7.3-20.2 31.6 31.6 0 012-10.8"/>
      <path fill="#cb4b16" fill-rule="evenodd" d="M74.9 202.4a31.3 31.3 0 01-4.5-27.9l.2 3a29.3 29.3 0 003 12.3 30 30 0 0010.6 12.6l2.6 1.6c-4.9 0-5.9-.1-10.7 0l-.5-.7z"/>
      <path fill="#859900" fill-rule="evenodd" d="M72.1 173.5c-.9-.3-1.4-.2-1.4-.5 1-8.3 5.5-16.7 12.2-21.7a30.1 30.1 0 0121.3-6.5c2.5.2 4.6.5 7 1.2l1.7.6-.2 1.2a31.5 31.5 0 01-29.2 27c-4.4 0-6 .3-11.4-1.3z"/>
      <path fill="none" stroke="#859900" stroke-linecap="round" d="M112.9 146.6a31.6 31.6 0 01-31.5 28.3 31.6 31.6 0 01-10.7-1.8m0 0a31.6 31.6 0 0131.5-28.4 31.6 31.6 0 0110.6 1.9"/>
      <path fill="#586e75" d="M97.6 161.5l-8.9 5.6 3.3.7 8.8-5.6zM87 164.2l8.8-5.6.8-3.2-8.8 5.6zm4.6-12.4l-8.8 5.7 3.2.6 8.8-5.6zM84.2 162l-2.2-.5-1.8 8.2a1.1 1.1 79.3 00.2.9 1.1 1.1 79.3 00.7.5l8 1.9.5-2.2-7-1.7zm18.3-13.2l-8-2-.5 2.3 7 1.6-1.6 7.1 2.1.5 1.9-8.2a1.1 1.1 79.3 00-.2-.8c-.1-.3-.4-.5-.7-.5"/>
      <path fill="#b58900" d="M79.2 309.2A83.2 83.2 0 0118 280.5l21.4-65.9-1-1-1.2-1.3.8-2.8c2-7.1 5.4-13 9.3-19 1.6-2.5 4-6 4.3-6 .2 0 4 3.6 4.8 5 1 1.5 3.2 4.6 3.6 6 .7 2.1 1.7 3.9 2.6 5.2 1.6 2.3 4.5 3.4 7.1 3.9l3.2-.2c2-.1 4.9-.6 7.9-.7 3.6 0 7.4.7 10 .7 2 .1 4.4-.2 4.7-.4 1.6-1 3.5-1.6 4.6-3.3 1.7-2.6 2-3 2.8-5.6 1.1-3.4 3.2-5.4 5.9-8.5.5-.6 2.2-2.6 2.3-2.2 0 .3 4 5 5.8 8.4 3.1 5.6 7.5 14 8.4 18.4l.3 1.1-1 1-1.4 1.4 21.5 66.1a83.6 83.6 0 01-28.8 21 93.4 93.4 0 01-23.1 6.9c-3.5.5-10 .6-13.6.5z"/>
      <path fill="none" stroke="#b58900" stroke-linecap="round" d="M90.1 204.5a10.6 10.6 0 001.8.1 10.6 10.6 0 009.9-6.8m9.3-13.4a31.6 31.6 0 00-9.3 13.4m23.8 14.5a84.4 84.4 0 00-14.5-27.9m-38.5 20a10.6 10.6 0 01-1.8.2 10.6 10.6 0 01-9.9-6.8m-9.3-13.4a31.6 31.6 0 019.3 13.4m-23.8 14.5a84.4 84.4 0 0114.5-27.9m21 20a52.7 52.8 0 018.8-.7 52.7 52.8 0 018.7.8m-8.8 104.7s0 0 0 0a84.4 84.4 0 0063.4-28.6m-19.1-68.3l-2.3 2.3m21.4 66l-21.5-66m-41.8 94.6s0 0 0 0A84.4 84.4 0 0118 280.6m19.1-68.3l2.4 2.3m-21.5 66l21.5-66"/>
      <ellipse cx="66.4" cy="241.6" fill="#073642" stroke="#073642" stroke-linecap="round" stroke-width="1.5" rx="3.1" ry="3"/>
      <ellipse cx="96.3" cy="241.6" fill="#073642" stroke="#073642" stroke-linecap="round" stroke-width="1.5" rx="3.1" ry="3"/>
      <path fill="none" stroke="#073642" stroke-linecap="round" stroke-width="4" d="M102.5 256.5a21.1 21.1 0 01-21.1 21 21.1 21.1 0 01-21.1-21"/>
    </g>
  </g>
</svg>
