<svg xmlns="http://www.w3.org/2000/svg" viewBox="0 0 400 400">
  <defs/>
  <path fill="#fda800" d="M0 0h400v400H0z"/>
  <path fill="#00fda4" d="M224 121c14-21 42-17 52-1-13 24-46 15-52 1z"/>
  <path fill="#fec" d="M159 183l-2-3 14-27 11 19h37l11-19 14 27-2 3 31 95H128z"/>
  <path fill="none" stroke="#000" stroke-width="3" d="M200 172c0-26-1-48 24-51m0 0c12 18 39 19 52-1-14-18-38-18-52 1z"/>
  <path fill="none" stroke="#000" stroke-width="3" d="M234 112l6 9-6 9"/>
  <path fill="none" stroke="#000" stroke-linejoin="round" stroke-width="3" d="M128 278l31-95-2-3 14-27 11 19m91 106l-31-95 2-3-14-27-11 19"/>
  <path fill="none" stroke="#000" stroke-width="3" d="M241 108l18 26m-17 0l8-13"/>
  <path fill="none" stroke="#000" stroke-linecap="round" stroke-width="3" d="M259 123h14m-18-6h17"/>
  <circle cx="213.7" cy="208" r="2.4" stroke="#000"/>
  <path fill="none" stroke="#000" stroke-linecap="round" stroke-width="3" d="M221 225a21 22 0 01-21 21 21 22 0 01-21-21"/>
  <circle cx="186.3" cy="208" r="2.4" stroke="#000"/>
  <path fill="none" stroke="#000" stroke-linecap="round" stroke-width="3" d="M128 278h145M182 172h37"/>
</svg>
