<svg xmlns="http://www.w3.org/2000/svg" viewBox="0 0 190 190">
  <defs/>
  <defs>
    <clipPath id="a" clipPathUnits="userSpaceOnUse">
      <path stroke-width="2" d="M-13.6 129.2h190v190h-190z"/>
    </clipPath>
    <filter id="b" color-interpolation-filters="sRGB">
      <feFlood flood-color="#000" flood-opacity=".5" result="flood"/>
      <feComposite in="flood" in2="SourceGraphic" operator="in" result="composite1"/>
      <feGaussianBlur in="composite1" result="blur" stdDeviation="1"/>
      <feOffset dx="1" dy="1" result="offset"/>
      <feComposite in="SourceGraphic" in2="offset" result="composite2"/>
    </filter>
  </defs>
  <path fill="#fdf6e3" stroke="#000" stroke-linecap="round" d="M-124 29.7h405.1v402.5H-124z" clip-path="url(#a)" transform="translate(13.6 -129.2)"/>
  <g filter="url(#b)" transform="translate(-5 -5)">
    <path fill="#cb4b16" d="M96.2 79.2c.8-6.4 3.5-12.4 9.8-18.7a30.9 30.9 0 00-5.9 18.7h-4z"/>
    <g fill="none" stroke="#cb4b16" stroke-linecap="round">
      <path d="M100.1 79.5V79c0-6.6 2-13 5.9-18.4M96.1 79.5c1-7.3 4.5-14 9.9-18.9"/>
    </g>
    <path fill="#859900" d="M128.5 20.7c-.7 2.6-1.3 3.2-.3 7 .4 1.4.2 1.2 1.1 1.4 3.6.2 5.2.4 8.3-1.5a31.6 31.6 0 01-31.6 33 31.7 31.7 0 0122.5-40z"/>
    <g fill="#586e75">
      <path d="M106.6 39.8a25.6 30.3 4 00-1 3l28.4 1.4a31.9 38 31.5 001.5-3.1zM104.8 46.7a25.6 30.3 4 00-.4 3.1l11.1.6.4-3.2z"/>
      <path d="M115.9 47.2l-3 1 4 10.8a31.9 38 55.6 002.8-1.2zM121.1 40.6l-3 1 5.2 14.1a31.9 38 55.6 00.6-.3 31.9 38 55.6 002-1.5zM125.1 26.5l-8 10.8 3.7.2 6.8-9.2zM130.2 30.2l-5.5 7.4 3.8.2 4.3-5.7z"/>
    </g>
    <g fill="none" stroke="#859900" stroke-linecap="round">
      <path d="M137.6 27.6V29A31.6 31.6 0 01106 60.6M106 60.6a31.6 31.6 0 0122.5-40M128.6 29a10.5 10.5 0 010-8.3M137.6 27.6a10.5 10.5 0 01-9 1.3"/>
    </g>
    <path fill="#b58900" d="M98 184.4a85.7 85.7 0 01-61.3-28.6L58 90.4 57 89.2 55.8 88l.9-2.7a80 80 0 0114.7-26.4c.2 0 3.4 4 4.3 5.5 1 1.5 2.5 4.8 3 6.1.7 2.2 1.2 3.4 2.1 4.8 1.5 2.1 4.2 3.5 6.8 4 1.6.3 24 .2 25.6-.1 1.8-.4 3.7-1.5 5.1-3 1.4-1.3 2-2.6 2.8-5.2a35.4 35.4 0 017.6-12.2 86.7 86.7 0 0115.1 28l.4 1.2-1 1-1.3 1.4 21.4 65.4-2.4 2.6a83.8 83.8 0 01-63 26z"/>
    <g fill="none" stroke="#b58900">
      <path stroke-linecap="round" d="M36.7 155.8L58 90.4M55.8 88l2.3 2.4M163.3 155.8a84.4 84.4 0 01-126.6 0M71.3 58.8a32 32 0 018 13.4M55.8 88a84.7 84.7 0 0115.5-29.2M89.4 79.5h-.2c-4.5 0-8.5-3-10-7.3M128.7 58.8a32 32 0 00-8 13.4M110.6 79.5h.2c4.5 0 8.5-3 10-7.3M163.3 155.8L142 90.4M144.2 88l-2.3 2.4M144.2 88a84.7 84.7 0 00-15.5-29.2"/>
      <path d="M89.4 79.5h21.2"/>
    </g>
    <ellipse cx="85.1" cy="117.3" fill="#073642" stroke="#073642" stroke-linecap="round" stroke-width="1.5" rx="3.1" ry="3"/>
    <ellipse cx="114.9" cy="117.3" fill="#073642" stroke="#073642" stroke-linecap="round" stroke-width="1.5" rx="3.1" ry="3"/>
    <path fill="none" stroke="#073642" stroke-linecap="round" stroke-width="4" d="M121 132.2a21.1 21.1 0 01-21 21.1 21.1 21.1 0 01-21.1-21"/>
  </g>
</svg>
