<svg xmlns="http://www.w3.org/2000/svg" viewBox="0 0 400 400">
  <defs/>
  <defs>
    <clipPath id="a" clipPathUnits="userSpaceOnUse">
      <path fill="none" stroke="#000" stroke-linecap="round" d="M105.5 105.5h189v189h-189z"/>
    </clipPath>
  </defs>
  <path fill="#fda800" stroke="#000" stroke-linecap="round" d="M-2.6-1.3h405.1v402.5H-2.6z" clip-path="url(#a)"/>
  <g transform="translate(118.6 -26.8)">
    <path fill="#ffdbed" d="M110 145c-.9 2.5-1.4 3.2-.5 7 .4 1.4.3 1.2 1.2 1.4 3.5.2 5.2.3 8.3-1.6a31.6 31.6 0 01-31.7 33 31.7 31.7 0 0122.6-39.9z"/>
    <path fill="#734e30" d="M77.5 203.4c.9-6.3 3.6-12.4 9.8-18.6a30.9 30.9 0 00-5.8 18.7h-4z"/>
    <path fill="#fec" d="M79.4 308.6A85.7 85.7 0 0118 280l21.5-65.4-1.2-1.2-1.1-1.1.9-2.8a80 80 0 0114.7-26.3c.2 0 3.4 4 4.3 5.4 1 1.5 2.5 4.8 3 6.2.6 2 1.2 3.4 2 4.7 1.6 2.2 4.3 3.6 6.9 4 1.6.4 24 .2 25.6 0 1.8-.4 3.7-1.6 5.1-3 1.4-1.4 2-2.7 2.8-5.2A35.4 35.4 0 01110 183a86.7 86.7 0 0115.2 27.8l.4 1.4-1 1-1.4 1.3 21.5 65.5-2.4 2.6a83.8 83.8 0 01-63 26z"/>
    <ellipse cx="66.4" cy="241.6" fill="#333" stroke="#333" stroke-linecap="round" rx="3.1" ry="3"/>
    <ellipse cx="96.3" cy="241.6" fill="#333" stroke="#333" stroke-linecap="round" rx="3.1" ry="3"/>
    <path fill="none" stroke="#333" stroke-linecap="round" stroke-width="3" d="M102.5 256.5a21.1 21.1 0 01-21.1 21 21.1 21.1 0 01-21.1-21"/>
    <g fill="none" stroke="#734e30" stroke-linecap="round">
      <path d="M81.5 203.7v-.5c0-6.6 2-13 5.9-18.3M77.5 203.7c1-7.2 4.5-13.9 9.8-18.8"/>
    </g>
    <g fill="none" stroke="#fec">
      <path stroke-linecap="round" d="M18 280l21.5-65.4M37.2 212.3l2.3 2.3M144.7 280A84.4 84.4 0 0118 280M52.7 183a32 32 0 018 13.5M37.2 212.3A84.7 84.7 0 0152.7 183M70.8 203.7h-.2c-4.5 0-8.6-3-10-7.2M110 183a32 32 0 00-7.8 13.5M92 203.7h.1c4.6 0 8.6-3 10-7.2M144.7 280l-21.5-65.4M125.6 212.3l-2.4 2.3M125.6 212.3A84.7 84.7 0 00110 183"/>
      <path d="M70.8 203.7H92"/>
    </g>
    <g fill="#b3b3b3">
      <path d="M88 164a25.6 30.3 4 00-1 3.1l28.3 1.3a31.9 38 31.5 001.6-3zM86.1 171a25.6 30.3 4 00-.3 3l11.1.6.3-3.1z"/>
      <path d="M97.3 171.5l-3 .9 3.9 10.8a31.9 38 55.6 003-1.2zM102.5 164.9l-3 .9 5.2 14.2a31.9 38 55.6 00.6-.4 31.9 38 55.6 002-1.5zM106.5 150.7l-8.1 10.8 3.8.2 6.8-9.1zM111.6 154.5l-5.5 7.4 3.8.1 4.2-5.7z"/>
    </g>
    <g fill="none" stroke="#ffdbed" stroke-linecap="round">
      <path d="M119 151.8v1.4a31.6 31.6 0 01-31.6 31.6M87.4 184.8a31.6 31.6 0 0122.5-39.9M110 153.2a10.5 10.5 0 010-8.3M119 151.8a10.5 10.5 0 01-9 1.4"/>
    </g>
  </g>
</svg>
