<svg xmlns="http://www.w3.org/2000/svg" viewBox="0 0 196 196">
  <defs/>
  <path fill="#fdf6e3" d="M0 0h196v196H0z"/>
  <g fill="none" stroke="#000" stroke-linecap="round">
    <path d="M204.4-338v-105.5h105.5V-338zM193.8-380.2a10.6 10.6 0 0110.6 10.5 10.6 10.6 0 01-10.6 10.6 10.6 10.6 0 01-10.5-10.6 10.6 10.6 0 0110.5-10.5" opacity=".3"/>
    <path d="M183.3-359.1v-21.1h21v21zM225.5-338a84.4 84.4 0 0184.4 84.4 84.4 84.4 0 01-84.4 84.4 84.4 84.4 0 01-84.4-84.4 84.4 84.4 0 0184.4-84.4M172.7-443.5a31.6 31.6 0 0131.7 31.6 31.6 31.6 0 01-31.7 31.7 31.6 31.6 0 01-31.6-31.7 31.6 31.6 0 0131.6-31.6M162.2-380.2a21.1 21.1 0 0121 21 21.1 21.1 0 01-21 21.2 21.1 21.1 0 01-21.1-21.1 21.1 21.1 0 0121-21.1" opacity=".3"/>
    <path d="M141-169.2V-338H310v168.8zM141-380.2v-63.3h63.4v63.3zM141-338v-42.2h42.3v42.2zM204.4-338v-105.5h105.5V-338z" opacity=".3"/>
    <path d="M225.5-338a84.4 84.4 0 0184.4 84.4 84.4 84.4 0 01-84.4 84.4 84.4 84.4 0 01-84.4-84.4 84.4 84.4 0 0184.4-84.4" opacity=".3"/>
  </g>
  <path fill="none" stroke="#cb4b16" stroke-linecap="round" d="M103.5 77.2a31.6 31.6 0 01-16.3-27.7 31.6 31.6 0 01.2-3.3m5.4 31A31.6 31.6 0 0185.5 57a31.6 31.6 0 012-10.8"/>
  <path fill="#cb4b16" fill-rule="evenodd" d="M91.5 75.5A31.3 31.3 0 0187 47.6l.2 3a29.3 29.3 0 003 12.3 30 30 0 0010.7 12.7l2.5 1.6H92.8l-.6-.7z"/>
  <path fill="#859900" fill-rule="evenodd" d="M88.8 46.7c-1-.3-1.4-.3-1.4-.5 1-8.3 5.5-16.7 12.2-21.7a30.1 30.1 0 0121.3-6.5c2.5.2 4.6.4 6.9 1.2l1.7.6-.1 1.2a31.5 31.5 0 01-29.2 27c-4.4 0-6 .2-11.4-1.3z"/>
  <path fill="none" stroke="#859900" stroke-linecap="round" d="M129.5 19.8A31.6 31.6 0 0198.1 48a31.6 31.6 0 01-10.7-1.9m0 0a31.6 31.6 0 0131.5-28.3 31.6 31.6 0 0110.6 1.8"/>
  <path fill="#586e75" d="M114.3 34.7l-8.9 5.6 3.2.7 8.9-5.7zm-10.7 2.7l8.9-5.6.8-3.2-8.9 5.6zm4.7-12.4l-8.8 5.6 3.2.7 8.8-5.7zm-7.4 10l-2.2-.4-1.8 8.2a1.1 1.1 79.3 00.1.8 1.1 1.1 79.3 00.7.5l8.1 2 .5-2.3-7-1.6zm18.3-13.2l-8-1.9-.6 2.2 7 1.7-1.6 7 2.2.6 1.8-8.2a1.1 1.1 79.3 00-.1-.9l-.7-.5"/>
  <g>
    <path fill="#b58900" d="M95.9 182.4a83.2 83.2 0 01-61.2-28.7l21.4-65.9-1-1-1.2-1.3.8-2.8a71.5 71.5 0 0114.8-26.3c.2 0 4.2 4.4 5 5.8 1 1.5 3 4.8 3.4 6.2a19 19 0 002.3 5 9.6 9.6 0 006.3 4c.4 0 1.5.3 3 .2 2.1-.2 5-.7 8-.7 3.6 0 7.3.6 10 .7 2 0 4.2-.8 4.5-1 1.5-1 3.3-2 4.3-3.8 1.5-2.7 1.2-2.4 2-5 1.2-3.3 3.8-6.5 6.4-9.6.5-.6 2.1-2.2 2.2-1.7 0 .2 4.6 6.2 6.7 9.4 3.2 5.2 7.5 14.1 8.3 18.5l.3 1.1-1 1-1.3 1.3 21.5 66.2a83.6 83.6 0 01-28.8 21 93.4 93.4 0 01-23.1 6.8c-3.6.5-10 .7-13.6.6z"/>
    <path fill="none" stroke="#b58900" stroke-linecap="round" d="M105.8 77.5a10.6 10.6 0 001.7.1 10.6 10.6 0 0010-7.1m9.2-14.2a31.6 31.6 0 00-9.3 14.2m-11.6 7a52.7 52.8 0 00-7.8-.6 52.7 52.8 0 000 0m-7.8.6a10.6 10.6 0 01-1.6.1 10.6 10.6 0 01-10-7.1m-9.3-14.2a31.6 31.6 0 019.3 14.2m11.6 7a52.7 52.8 0 017.8-.6 52.7 52.8 0 010 0m44.3 8.5a84.6 84.6 0 00-15.6-29.1M98 182.4s0 0 0 0a84.4 84.4 0 0063.4-28.6m-19.1-68.4l-2.4 2.4m21.5 66l-21.5-66m-86.1-2.4a84.6 84.6 0 0115.5-29.1m28.8 126.1s0 0 0 0a84.4 84.4 0 01-63.4-28.6m19.1-68.4l2.3 2.4m-21.4 66l21.5-66"/>
  </g>
  <g stroke="#073642" stroke-linecap="round" transform="translate(16.7 -126.8)">
    <ellipse cx="66.4" cy="241.6" fill="#073642" stroke-width="1.5" rx="3.1" ry="3"/>
    <ellipse cx="96.3" cy="241.6" fill="#073642" stroke-width="1.5" rx="3.1" ry="3"/>
    <path fill="none" stroke-width="4" d="M102.5 256.5a21.1 21.1 0 01-21.1 21 21.1 21.1 0 01-21.1-21"/>
  </g>
</svg>
