<?xml version="1.0" encoding="UTF-8" standalone="no"?>
<svg
   xmlns:osb="http://www.openswatchbook.org/uri/2009/osb"
   xmlns:dc="http://purl.org/dc/elements/1.1/"
   xmlns:cc="http://creativecommons.org/ns#"
   xmlns:rdf="http://www.w3.org/1999/02/22-rdf-syntax-ns#"
   xmlns:svg="http://www.w3.org/2000/svg"
   xmlns="http://www.w3.org/2000/svg"
   xmlns:sodipodi="http://sodipodi.sourceforge.net/DTD/sodipodi-0.dtd"
   xmlns:inkscape="http://www.inkscape.org/namespaces/inkscape"
   viewBox="0 0 400 400"
   version="1.1"
   id="svg28"
   sodipodi:docname="unoptimized.svg"
   inkscape:version="1.0.1 (3bc2e813f5, 2020-09-07, custom)">
  <metadata
     id="metadata32">
    <rdf:RDF>
      <cc:Work
         rdf:about="">
        <dc:format>image/svg+xml</dc:format>
        <dc:type
           rdf:resource="http://purl.org/dc/dcmitype/StillImage" />
        <dc:title />
      </cc:Work>
    </rdf:RDF>
  </metadata>
  <sodipodi:namedview
     showguides="true"
     pagecolor="#ffffff"
     bordercolor="#666666"
     borderopacity="1"
     objecttolerance="10"
     gridtolerance="10"
     guidetolerance="10"
     inkscape:pageopacity="0"
     inkscape:pageshadow="2"
     inkscape:window-width="1904"
     inkscape:window-height="1042"
     id="namedview30"
     showgrid="false"
     showborder="false"
     inkscape:zoom="2.5723553"
     inkscape:cx="72.926181"
     inkscape:cy="232.08813"
     inkscape:window-x="8"
     inkscape:window-y="30"
     inkscape:window-maximized="0"
     inkscape:current-layer="layer3"
     inkscape:object-paths="true"
     inkscape:snap-intersection-paths="true"
     inkscape:snap-midpoints="true"
     inkscape:snap-center="false"
     inkscape:snap-object-midpoints="true"
     inkscape:snap-bbox="true"
     inkscape:bbox-paths="true"
     inkscape:bbox-nodes="false"
     inkscape:snap-bbox-edge-midpoints="false"
     inkscape:snap-bbox-midpoints="false"
     inkscape:snap-nodes="true"
     inkscape:snap-smooth-nodes="true"
     inkscape:object-nodes="true"
     inkscape:snap-others="true"
     inkscape:document-rotation="0"
     inkscape:snap-global="true"
     inkscape:snap-text-baseline="true"
     inkscape:snap-page="true" />
  <defs
     id="defs2">
    <linearGradient
       osb:paint="solid"
       id="linearGradient2983">
      <stop
         id="stop2981"
         offset="0"
         style="stop-color:#333333;stop-opacity:1;" />
    </linearGradient>
    <inkscape:path-effect
       only_selected="false"
       apply_with_weight="true"
       apply_no_weight="true"
       helper_size="0"
       steps="2"
       weight="33.333333"
       lpeversion="1"
       is_visible="true"
       id="path-effect1572"
       effect="bspline" />
    <inkscape:path-effect
       only_selected="false"
       apply_with_weight="true"
       apply_no_weight="true"
       helper_size="0"
       steps="2"
       weight="33.333333"
       lpeversion="1"
       is_visible="true"
       id="path-effect1558"
       effect="bspline" />
    <inkscape:path-effect
       effect="bspline"
       id="path-effect4" />
    <inkscape:path-effect
       effect="bspline"
       id="path-effect1329"
       is_visible="true"
       lpeversion="1"
       weight="33.333333"
       steps="2"
       helper_size="0"
       apply_no_weight="true"
       apply_with_weight="true"
       only_selected="false" />
    <inkscape:path-effect
       effect="bspline"
       id="path-effect1325"
       is_visible="true"
       lpeversion="1"
       weight="33.333333"
       steps="2"
       helper_size="0"
       apply_no_weight="true"
       apply_with_weight="true"
       only_selected="false" />
    <inkscape:path-effect
       effect="bspline"
       id="path-effect967"
       is_visible="true"
       lpeversion="1"
       weight="33.333333"
       steps="2"
       helper_size="0"
       apply_no_weight="true"
       apply_with_weight="true"
       only_selected="false" />
    <inkscape:path-effect
       effect="bspline"
       id="path-effect951"
       is_visible="true"
       lpeversion="1"
       weight="33.333333"
       steps="2"
       helper_size="0"
       apply_no_weight="true"
       apply_with_weight="true"
       only_selected="false" />
    <inkscape:path-effect
       effect="bspline"
       id="path-effect947"
       is_visible="true"
       lpeversion="1"
       weight="33.333333"
       steps="2"
       helper_size="0"
       apply_no_weight="true"
       apply_with_weight="true"
       only_selected="false" />
    <inkscape:path-effect
       effect="bspline"
       id="path-effect943"
       is_visible="true"
       lpeversion="1"
       weight="33.333333"
       steps="2"
       helper_size="0"
       apply_no_weight="true"
       apply_with_weight="true"
       only_selected="false" />
    <inkscape:path-effect
       effect="bspline"
       id="path-effect931"
       is_visible="true"
       lpeversion="1"
       weight="33.333333"
       steps="2"
       helper_size="0"
       apply_no_weight="true"
       apply_with_weight="true"
       only_selected="false" />
    <clipPath
       clipPathUnits="userSpaceOnUse"
       id="clipPath1642">
      <g
         id="g1656"
         transform="matrix(0.13600798,-0.0841443,0.0841443,0.13600798,75.966,158.38225)"
         style="stroke-width:23.635;stroke-miterlimit:4;stroke-dasharray:none">
        <g
           style="fill:#666666;stroke-width:23.635;stroke-miterlimit:4;stroke-dasharray:none"
           id="g1650">
          <path
             d="M 0,120 40,60 0,0 h 30 l 40,60 -40,60"
             id="path1644"
             style="stroke-width:23.635;stroke-miterlimit:4;stroke-dasharray:none" />
          <path
             d="M 136.66667,85 123.33333,65 H 170 v 20"
             id="path1646"
             style="stroke-width:23.635;stroke-miterlimit:4;stroke-dasharray:none" />
          <path
             d="M 116.66667,55 103.33333,35 H 170 v 20"
             id="path1648"
             style="stroke-width:23.635;stroke-miterlimit:4;stroke-dasharray:none" />
        </g>
        <g
           style="fill:#999999;stroke-width:23.635;stroke-miterlimit:4;stroke-dasharray:none"
           id="g1654">
          <path
             d="M 40,120 80,60 40,0 h 30 l 80,120 H 120 L 95,82.5 70,120"
             id="path1652"
             style="stroke-width:23.635;stroke-miterlimit:4;stroke-dasharray:none" />
        </g>
      </g>
    </clipPath>
    <clipPath
       clipPathUnits="userSpaceOnUse"
       id="clipPath1720">
      <path
         id="path1722"
         style="opacity:0.24895;fill:#000080;fill-rule:evenodd;stroke:#cb4b16;stroke-width:0.099999;stroke-linecap:square;stroke-miterlimit:4;stroke-dasharray:none;stop-color:#000000"
         d="M 0.00623559,-55.035339 73.113238,61.837785 17.09908,152.37716 51.703016,173.78564 97.173558,100.28861 116.20307,130.71575 195.46636,185.11017 79.273503,-0.62412967 Z" />
    </clipPath>
    <clipPath
       clipPathUnits="userSpaceOnUse"
       id="clipPath1757">
      <rect
         style="opacity:0.24895;fill:#000080;fill-rule:evenodd;stroke:#cb4b16;stroke-width:0.1;stroke-linecap:square;stroke-miterlimit:4;stroke-dasharray:none;stop-color:#000000"
         id="rect1759"
         width="170.85454"
         height="82.034134"
         x="37.255577"
         y="-147.81429"
         transform="rotate(57.529555)" />
    </clipPath>
  </defs>
  <g
     inkscape:label="background"
     id="layer4"
     inkscape:groupmode="layer"
     style="display:inline"
     sodipodi:insensitive="true">
    <rect
       style="display:inline;opacity:1;fill:#fdf6e3;fill-opacity:1;stroke:none;stroke-width:1;stroke-linecap:round"
       id="rect992"
       width="400"
       height="400"
       x="-118.64308"
       y="24.834305" />
  </g>
  <g
     inkscape:groupmode="layer"
     id="g3035"
     inkscape:label="golden ratio"
     style="display:none;opacity:1"
     sodipodi:insensitive="true">
    <path
       style="display:inline;opacity:0.252805;fill:none;stroke:#000000;stroke-width:0.999996;stroke-linecap:round;stroke-miterlimit:4;stroke-dasharray:none"
       d="m 187.6868,-211.19514 v -105.49999 h 105.5 v 105.49999 z"
       id="path991" />
    <path
       style="display:inline;opacity:0.252805;fill:none;stroke:#000000;stroke-width:0.999996;stroke-linecap:round;stroke-miterlimit:4;stroke-dasharray:none"
       d="m 177.137,-253.39539 a 10.550008,10.550007 0 0 1 10.55,10.55001 10.550008,10.550007 0 0 1 -10.55,10.55 10.550008,10.550007 0 0 1 -10.55001,-10.55 10.550008,10.550007 0 0 1 10.55001,-10.55001"
       id="path989" />
    <path
       style="display:inline;opacity:0.252805;fill:none;stroke:#000000;stroke-width:0.999996;stroke-linecap:round;stroke-miterlimit:4;stroke-dasharray:none"
       d="m 166.58698,-232.29534 v -21.10001 h 21.10001 v 21.10001 z"
       id="path986" />
    <path
       style="display:inline;opacity:0.252805;fill:none;stroke:#000000;stroke-width:0.999996;stroke-linecap:round;stroke-miterlimit:4;stroke-dasharray:none"
       d="m 208.78684,-211.19546 a 84.399956,84.399948 0 0 1 84.39995,84.39995 84.399956,84.399948 0 0 1 -84.39995,84.39994 84.399956,84.399948 0 0 1 -84.39997,-84.39994 84.399956,84.399948 0 0 1 84.39997,-84.39995"
       id="path984" />
    <path
       style="display:inline;opacity:0.252805;fill:none;stroke:#000000;stroke-width:0.999996;stroke-linecap:round;stroke-miterlimit:4;stroke-dasharray:none"
       d="m 156.03684,-316.69536 a 31.649958,31.649954 0 0 1 31.64995,31.64995 31.649958,31.649954 0 0 1 -31.64995,31.64997 31.649958,31.649954 0 0 1 -31.64997,-31.64997 31.649958,31.649954 0 0 1 31.64997,-31.64995"
       id="path982" />
    <path
       style="display:inline;opacity:0.252805;fill:none;stroke:#000000;stroke-width:0.999996;stroke-linecap:round;stroke-miterlimit:4;stroke-dasharray:none"
       d="m 145.48694,-253.39539 a 21.100052,21.10005 0 0 1 21.10005,21.10005 21.100052,21.10005 0 0 1 -21.10005,21.10003 21.100052,21.10005 0 0 1 -21.10006,-21.10003 21.100052,21.10005 0 0 1 21.10006,-21.10005"
       id="path980" />
    <path
       style="display:inline;opacity:0.252805;fill:none;stroke:#000000;stroke-width:0.999996;stroke-linecap:round;stroke-miterlimit:4;stroke-dasharray:none"
       d="M 124.38686,-42.39537 V -211.19528 H 293.18678 V -42.39537 Z"
       id="path978" />
    <path
       style="display:inline;opacity:0.252805;fill:none;stroke:#000000;stroke-width:0.999996;stroke-linecap:round;stroke-miterlimit:4;stroke-dasharray:none"
       d="m 124.38686,-253.39537 v -63.29993 h 63.29993 v 63.29993 z"
       id="path976" />
    <path
       style="display:inline;opacity:0.252805;fill:none;stroke:#000000;stroke-width:0.999996;stroke-linecap:round;stroke-miterlimit:4;stroke-dasharray:none"
       d="m 124.38686,-211.19526 v -42.20008 h 42.20012 v 42.20008 z"
       id="path3033" />
    <circle
       cy="204.17232"
       cx="32.821941"
       id="ellipse1112"
       style="display:inline;opacity:0.15;fill:none;stroke:#000000;stroke-width:0.999997;stroke-linecap:round;stroke-miterlimit:4;stroke-dasharray:none"
       r="0" />
    <circle
       cy="204.17232"
       cx="32.821941"
       id="ellipse1114"
       style="display:inline;opacity:0.15;fill:none;stroke:#000000;stroke-width:0.999997;stroke-linecap:round;stroke-miterlimit:4;stroke-dasharray:none"
       r="0" />
    <path
       style="display:inline;opacity:0.252805;fill:none;stroke:#000000;stroke-width:0.999996;stroke-linecap:round;stroke-miterlimit:4;stroke-dasharray:none"
       d="m 187.6868,-211.19514 v -105.49999 h 105.5 v 105.49999 z"
       id="path936" />
    <path
       style="display:inline;opacity:0.252805;fill:none;stroke:#000000;stroke-width:0.999996;stroke-linecap:round;stroke-miterlimit:4;stroke-dasharray:none"
       d="m 208.78684,-211.19546 a 84.399956,84.399948 0 0 1 84.39995,84.39995 84.399956,84.399948 0 0 1 -84.39995,84.39994 84.399956,84.399948 0 0 1 -84.39997,-84.39994 84.399956,84.399948 0 0 1 84.39997,-84.39995"
       id="path938" />
  </g>
  <g
     inkscape:groupmode="layer"
     id="g997"
     inkscape:label="center circle"
     style="display:none"
     sodipodi:insensitive="true">
    <path
       d="m 124.38686,-211.19526 v -42.20008 h 42.20012 v 42.20008 z m 0,-42.20011 v -63.29993 h 63.29993 v 63.29993 z m 0,211 v -168.79991 h 168.79992 v 168.79991 z m 21.10008,-211.00002 a 21.100052,21.10005 0 0 1 21.10005,21.10005 21.100052,21.10005 0 0 1 -21.10005,21.10003 21.100052,21.10005 0 0 1 -21.10006,-21.10003 21.100052,21.10005 0 0 1 21.10006,-21.10005 m 10.5499,-63.29997 a 31.649958,31.649954 0 0 1 31.64995,31.64995 31.649958,31.649954 0 0 1 -31.64995,31.64997 31.649958,31.649954 0 0 1 -31.64997,-31.64997 31.649958,31.649954 0 0 1 31.64997,-31.64995 m 52.75,105.4999 a 84.399956,84.399948 0 0 1 84.39995,84.39995 84.399956,84.399948 0 0 1 -84.39995,84.39994 84.399956,84.399948 0 0 1 -84.39997,-84.39994 84.399956,84.399948 0 0 1 84.39997,-84.39995 m -42.19986,-21.09988 v -21.10001 h 21.10001 v 21.10001 z m 10.55002,-21.10005 a 10.550008,10.550007 0 0 1 10.55,10.55001 10.550008,10.550007 0 0 1 -10.55,10.55 10.550008,10.550007 0 0 1 -10.55001,-10.55 10.550008,10.550007 0 0 1 10.55001,-10.55001 m 10.5498,42.20025 v -105.49999 h 105.5 v 105.49999 z m 52.75,-105.49998 a 52.75,52.749996 0 0 1 52.75,52.75 52.75,52.749996 0 0 1 -52.75,52.74998 52.75,52.749996 0 0 1 -52.75,-52.74998 52.75,52.749996 0 0 1 52.75,-52.75"
       style="display:inline;opacity:0.252805;fill:none;stroke:#000000;stroke-width:0.999996;stroke-linecap:round;stroke-miterlimit:4;stroke-dasharray:none"
       id="path973" />
    <ellipse
       style="display:inline;opacity:0.15;fill:none;stroke:#000000;stroke-width:1;stroke-linecap:round;stroke-miterlimit:4;stroke-dasharray:none"
       id="ellipse1129"
       cx="81.356911"
       cy="224.83432"
       rx="84.399948"
       ry="84.399956" />
    <ellipse
       style="display:inline;opacity:0.15;fill:none;stroke:#000000;stroke-width:1;stroke-linecap:round;stroke-miterlimit:4;stroke-dasharray:none"
       id="ellipse1132"
       cx="-81.356911"
       cy="224.83432"
       rx="84.399948"
       ry="84.399956"
       transform="scale(-1,1)" />
  </g>
  <g
     inkscape:groupmode="layer"
     id="layer14"
     inkscape:label="golden stroke"
     style="display:none;opacity:1"
     sodipodi:insensitive="true">
    <g
       inkscape:groupmode="layer"
       id="layer11"
       inkscape:label="branch"
       style="display:inline;opacity:1"
       sodipodi:insensitive="true">
      <ellipse
         ry="31.649958"
         rx="31.649956"
         cy="175.57092"
         cx="100.21636"
         id="ellipse1022"
         style="display:inline;opacity:0.2;fill:none;stroke:#000000;stroke-width:0.999998;stroke-linecap:round;stroke-miterlimit:4;stroke-dasharray:none" />
      <ellipse
         ry="31.649958"
         rx="31.649956"
         cy="185.27095"
         cx="100.21636"
         id="ellipse1024"
         style="display:inline;opacity:0.2;fill:none;stroke:#000000;stroke-width:0.999998;stroke-linecap:round;stroke-miterlimit:4;stroke-dasharray:none" />
    </g>
    <g
       inkscape:groupmode="layer"
       id="layer6"
       inkscape:label="leaf"
       style="display:inline;opacity:1"
       sodipodi:insensitive="true">
      <ellipse
         ry="31.649958"
         rx="31.649956"
         cy="150.98428"
         cx="81.356911"
         id="ellipse1078"
         style="display:inline;opacity:0.2;fill:none;stroke:#000000;stroke-width:0.999998;stroke-linecap:round;stroke-miterlimit:4;stroke-dasharray:none" />
      <ellipse
         ry="31.649958"
         rx="31.649956"
         cy="175.57092"
         cx="100.21636"
         id="ellipse960"
         style="display:inline;opacity:0.2;fill:none;stroke:#000000;stroke-width:0.999998;stroke-linecap:round;stroke-miterlimit:4;stroke-dasharray:none" />
    </g>
    <g
       inkscape:groupmode="layer"
       id="layer7"
       inkscape:label="face"
       style="display:inline;opacity:1"
       sodipodi:insensitive="true">
      <ellipse
         style="display:inline;opacity:0.2;fill:none;stroke:#000000;stroke-width:1;stroke-linecap:round;stroke-miterlimit:4;stroke-dasharray:none;stroke-opacity:1"
         id="ellipse1002"
         cx="81.356911"
         cy="224.83432"
         rx="84.399948"
         ry="84.399956" />
      <ellipse
         style="display:inline;opacity:0.2;fill:none;stroke:#000000;stroke-width:0.999996;stroke-linecap:round;stroke-miterlimit:4;stroke-dasharray:none"
         id="ellipse1004"
         cx="81.356911"
         cy="256.48428"
         rx="21.10005"
         ry="21.100052" />
      <path
         d="M 90.241673,203.86849"
         style="display:inline;opacity:0.2;fill:none;stroke:#000000;stroke-width:0.999998;stroke-linecap:round;stroke-miterlimit:4;stroke-dasharray:none;stroke-opacity:1"
         id="path1008" />
      <path
         id="path1010"
         d="M 69.065003,203.70489"
         style="display:inline;opacity:0.2;fill:none;stroke:#000000;stroke-width:0.999998;stroke-linecap:round;stroke-miterlimit:4;stroke-dasharray:none;stroke-opacity:1" />
      <path
         id="path1020"
         style="display:inline;opacity:0.2;fill:none;stroke:#000000;stroke-width:0.999999px;stroke-linecap:butt;stroke-linejoin:miter;stroke-opacity:1"
         d="M 96.264265,241.57694 66.436929,271.40429" />
      <path
         id="path1198"
         style="display:inline;opacity:0.2;fill:none;stroke:#000000;stroke-width:0.999999px;stroke-linecap:butt;stroke-linejoin:miter;stroke-opacity:1"
         d="m 66.443697,241.57109 29.833195,29.8332" />
      <path
         style="opacity:0.2;fill:none;stroke:#000000;stroke-width:1px;stroke-linecap:butt;stroke-linejoin:miter;stroke-opacity:1"
         d="M 60.256861,256.48428 H 102.45696"
         id="path94" />
      <ellipse
         style="display:inline;opacity:0.2;fill:none;stroke:#000000;stroke-width:1;stroke-linecap:round;stroke-miterlimit:4;stroke-dasharray:none"
         id="ellipse1000"
         cx="81.356911"
         cy="256.48428"
         rx="52.749996"
         ry="52.75" />
      <ellipse
         style="display:inline;opacity:0.2;fill:none;stroke:#000000;stroke-width:1;stroke-linecap:round;stroke-miterlimit:4;stroke-dasharray:none"
         id="ellipse94"
         cx="81.356911"
         cy="150.98428"
         rx="52.749996"
         ry="52.75" />
      <path
         id="path1019"
         style="display:inline;opacity:0.2;fill:none;stroke:#000000;stroke-width:1px;stroke-linecap:butt;stroke-linejoin:miter;stroke-opacity:1"
         d="M 81.356911,98.234283 4.9184796,314.4349" />
      <path
         id="path1022"
         style="display:inline;opacity:0.2;fill:none;stroke:#000000;stroke-width:1px;stroke-linecap:butt;stroke-linejoin:miter;stroke-opacity:1"
         d="M 81.356908,98.234284 157.7953,314.43479" />
    </g>
  </g>
  <g
     inkscape:groupmode="layer"
     id="layer2"
     inkscape:label="matoruru"
     style="display:inline;opacity:1">
    <g
       inkscape:groupmode="layer"
       id="g979"
       inkscape:label="branch"
       style="display:inline"
       sodipodi:insensitive="true">
      <g
         inkscape:groupmode="layer"
         id="layer12"
         inkscape:label="fill"
         style="display:inline"
         sodipodi:insensitive="true">
        <path
           style="display:inline;opacity:1;fill:#cb4b16;fill-opacity:1;fill-rule:evenodd;stroke:none;stroke-width:2;stroke-linecap:round;stroke-linejoin:miter;stroke-miterlimit:4;stroke-dasharray:none;stroke-opacity:1;stop-color:#000000"
           d="m 69.055908,180.95373 c 3.154334,12.22682 7.748385,17.45531 16.408954,22.62035 0,0 -7.164442,0.57282 -11.299964,-0.33238 -5.676673,-8.10637 -6.272054,-15.73569 -5.10899,-22.28797 z"
           id="path1270"
           sodipodi:nodetypes="cccc" />
      </g>
      <g
         inkscape:groupmode="layer"
         id="layer13"
         inkscape:label="stroke"
         style="display:inline"
         sodipodi:insensitive="true">
        <path
           id="path1145"
           style="display:inline;opacity:1;fill:none;stroke:#cb4b16;stroke-width:1;stroke-linecap:round;stroke-miterlimit:4;stroke-dasharray:none;stroke-opacity:1"
           d="m 85.464862,203.57408 a 52.749996,52.75 0 0 1 -4.107951,0.1602 52.749996,52.75 0 0 1 -7.192013,-0.49258 m 11.299964,0.33238 a 52.749996,52.75 0 0 1 -4.107951,0.1602 52.749996,52.75 0 0 1 -7.192013,-0.49258 m -7.81e-4,0.001 a 31.649956,31.649958 0 0 1 -5.597711,-17.97221 31.649956,31.649958 0 0 1 0.373442,-4.84762 m 16.524693,23.14944 A 31.649956,31.649958 0 0 1 68.94074,180.42429" />
      </g>
    </g>
    <g
       inkscape:groupmode="layer"
       id="g1057"
       inkscape:label="leaf"
       style="display:inline"
       sodipodi:insensitive="true">
      <g
         inkscape:groupmode="layer"
         id="layer8"
         inkscape:label="fill "
         style="display:inline"
         sodipodi:insensitive="true">
        <path
           style="opacity:1;fill:#859900;fill-opacity:1;fill-rule:evenodd;stroke:none;stroke-width:1;stroke-linecap:round;stroke-linejoin:miter;stop-color:#000000"
           d="m 68.88851,180.07486 c -0.30072,-5.66717 -0.439548,-11.08864 1.920722,-16.20609 2.282862,-4.94961 6.101851,-13.22213 18.40373,-17.97351 7.38572,-2.58192 14.127398,-2.9865 23.642588,0.69217 0.12913,6.50434 -0.11053,10.2952 -1.45566,14.35373 -3.01128,8.55151 -6.45717,11.28932 -11.36382,15.59325 -8.928081,6.69608 -20.666852,7.88829 -31.14756,3.54045 z"
           id="path1200"
           sodipodi:nodetypes="csccccc" />
      </g>
      <g
         inkscape:groupmode="layer"
         id="layer9"
         inkscape:label="stroke"
         style="display:inline"
         sodipodi:insensitive="true">
        <path
           id="path1013"
           style="display:inline;opacity:1;fill:none;stroke:#859900;stroke-width:0.999998;stroke-linecap:round;stroke-miterlimit:4;stroke-dasharray:none;stroke-opacity:1"
           d="m 68.88851,180.07486 a 31.649956,31.649958 0 0 1 -0.322104,-4.50394 31.649956,31.649958 0 0 1 31.649954,-31.64995 31.649956,31.649958 0 0 1 12.46831,2.55939 m 1.8e-4,5.8e-4 a 31.649956,31.649958 0 0 1 0.32202,4.50334 v 0 a 31.649956,31.649958 0 0 1 -31.649959,31.64996 31.649956,31.649958 0 0 1 -12.46846,-2.55946" />
      </g>
    </g>
    <g
       inkscape:groupmode="layer"
       id="layer1"
       inkscape:label="face"
       style="display:inline;opacity:1"
       sodipodi:insensitive="true">
      <g
         inkscape:groupmode="layer"
         id="layer3"
         inkscape:label="fill"
         style="display:inline;opacity:1"
         sodipodi:insensitive="true">
        <path
           sodipodi:nodetypes="ccccccc"
           id="path953"
           d="m 79.214494,309.20713 c -21.4896,-0.0404 -44.606243,-9.65514 -62.008114,-29.52701 l 30.995092,-87.66806 c 9.898844,7.19173 18.478087,11.52514 33.155439,11.72222 16.950678,-0.1807 25.371489,-6.43414 33.155429,-11.72221 l 30.99488,87.66678 c -18.742,21.5895 -42.9796,29.96947 -66.292726,29.52828 z"
           style="display:inline;opacity:1;fill:#b58900;fill-opacity:1;stroke:none;stroke-width:1;stroke-linecap:round" />
      </g>
      <g
         inkscape:groupmode="layer"
         id="layer15"
         inkscape:label="stroke"
         style="display:inline;opacity:1"
         sodipodi:insensitive="true">
        <path
           id="path995"
           style="display:inline;opacity:1;fill:none;stroke:#b58900;stroke-width:1px;stroke-linecap:round;stroke-linejoin:miter;stroke-opacity:1"
           d="m 114.51217,192.01158 30.99505,87.66727 m 7.9e-4,6.1e-4 A 84.399948,84.399956 0 0 1 81.356911,309.23428 84.399948,84.399956 0 0 1 17.20638,279.68012 M 48.201643,192.01158 17.206594,279.67885 M 114.5128,192.0117 A 52.749996,52.75 0 0 1 81.356911,203.73428 52.749996,52.75 0 0 1 48.201283,192.01191" />
      </g>
    </g>
    <g
       inkscape:groupmode="layer"
       id="g986"
       inkscape:label="eyes"
       style="display:inline"
       sodipodi:insensitive="true">
      <ellipse
         ry="3.023047"
         rx="3.0876026"
         cy="241.55135"
         cx="66.449905"
         id="ellipse922"
         style="display:inline;opacity:1;fill:#073642;fill-opacity:1;stroke:#073642;stroke-width:1.5;stroke-linecap:round;stroke-miterlimit:4;stroke-dasharray:none;stroke-opacity:1" />
      <ellipse
         style="display:inline;opacity:1;fill:#073642;fill-opacity:1;stroke:#073642;stroke-width:1.5;stroke-linecap:round;stroke-miterlimit:4;stroke-dasharray:none;stroke-opacity:1"
         id="ellipse924"
         cx="96.289841"
         cy="241.57726"
         rx="3.0876026"
         ry="3.023047" />
      <path
         d="M 102.45699,256.48426 A 21.10005,21.100052 0 0 1 81.356944,277.58431 21.10005,21.100052 0 0 1 60.256894,256.48426"
         style="display:inline;opacity:1;fill:none;stroke:#073642;stroke-width:4;stroke-linecap:round;stroke-miterlimit:4;stroke-dasharray:none;stroke-opacity:1"
         id="path926" />
    </g>
  </g>
</svg>
