<?xml version="1.0" encoding="UTF-8" standalone="no"?>
<svg
   xmlns:osb="http://www.openswatchbook.org/uri/2009/osb"
   xmlns:dc="http://purl.org/dc/elements/1.1/"
   xmlns:cc="http://creativecommons.org/ns#"
   xmlns:rdf="http://www.w3.org/1999/02/22-rdf-syntax-ns#"
   xmlns:svg="http://www.w3.org/2000/svg"
   xmlns="http://www.w3.org/2000/svg"
   xmlns:sodipodi="http://sodipodi.sourceforge.net/DTD/sodipodi-0.dtd"
   xmlns:inkscape="http://www.inkscape.org/namespaces/inkscape"
   inkscape:version="1.0 (4035a4fb49, 2020-05-01)"
   sodipodi:docname="unoptimized-favicon.svg"
   id="svg28"
   version="1.1"
   viewBox="0 0 200 200"
   width="200"
   height="200">
  <metadata
     id="metadata32">
    <rdf:RDF>
      <cc:Work
         rdf:about="">
        <dc:format>image/svg+xml</dc:format>
        <dc:type
           rdf:resource="http://purl.org/dc/dcmitype/StillImage" />
        <dc:title></dc:title>
      </cc:Work>
    </rdf:RDF>
  </metadata>
  <sodipodi:namedview
     inkscape:document-rotation="0"
     inkscape:snap-others="true"
     inkscape:object-nodes="true"
     inkscape:snap-smooth-nodes="true"
     inkscape:snap-nodes="true"
     inkscape:snap-bbox-midpoints="true"
     inkscape:snap-bbox-edge-midpoints="true"
     inkscape:bbox-nodes="true"
     inkscape:bbox-paths="false"
     inkscape:snap-bbox="false"
     inkscape:snap-object-midpoints="true"
     inkscape:snap-center="true"
     inkscape:snap-midpoints="false"
     inkscape:snap-intersection-paths="true"
     inkscape:object-paths="true"
     inkscape:current-layer="layer1"
     inkscape:window-maximized="0"
     inkscape:window-y="30"
     inkscape:window-x="8"
     inkscape:cy="132.06459"
     inkscape:cx="83.305113"
     inkscape:zoom="1.9873051"
     showborder="true"
     showgrid="false"
     id="namedview30"
     inkscape:window-height="1042"
     inkscape:window-width="1904"
     inkscape:pageshadow="2"
     inkscape:pageopacity="0"
     guidetolerance="10"
     gridtolerance="10"
     objecttolerance="10"
     borderopacity="1"
     bordercolor="#666666"
     pagecolor="#ffffff"
     showguides="false" />
  <defs
     id="defs2">
    <linearGradient
       id="linearGradient2983"
       osb:paint="solid">
      <stop
         style="stop-color:#333333;stop-opacity:1;"
         offset="0"
         id="stop2981" />
    </linearGradient>
    <inkscape:path-effect
       effect="bspline"
       id="path-effect1572"
       is_visible="true"
       lpeversion="1"
       weight="33.333333"
       steps="2"
       helper_size="0"
       apply_no_weight="true"
       apply_with_weight="true"
       only_selected="false" />
    <inkscape:path-effect
       effect="bspline"
       id="path-effect1558"
       is_visible="true"
       lpeversion="1"
       weight="33.333333"
       steps="2"
       helper_size="0"
       apply_no_weight="true"
       apply_with_weight="true"
       only_selected="false" />
    <inkscape:path-effect
       id="path-effect4"
       effect="bspline"
       is_visible="true"
       lpeversion="0"
       weight="33.333333"
       steps="2"
       helper_size="0"
       apply_no_weight="true"
       apply_with_weight="true"
       only_selected="false" />
    <inkscape:path-effect
       only_selected="false"
       apply_with_weight="true"
       apply_no_weight="true"
       helper_size="0"
       steps="2"
       weight="33.333333"
       lpeversion="1"
       is_visible="true"
       id="path-effect1329"
       effect="bspline" />
    <inkscape:path-effect
       only_selected="false"
       apply_with_weight="true"
       apply_no_weight="true"
       helper_size="0"
       steps="2"
       weight="33.333333"
       lpeversion="1"
       is_visible="true"
       id="path-effect1325"
       effect="bspline" />
    <inkscape:path-effect
       only_selected="false"
       apply_with_weight="true"
       apply_no_weight="true"
       helper_size="0"
       steps="2"
       weight="33.333333"
       lpeversion="1"
       is_visible="true"
       id="path-effect967"
       effect="bspline" />
    <inkscape:path-effect
       only_selected="false"
       apply_with_weight="true"
       apply_no_weight="true"
       helper_size="0"
       steps="2"
       weight="33.333333"
       lpeversion="1"
       is_visible="true"
       id="path-effect951"
       effect="bspline" />
    <inkscape:path-effect
       only_selected="false"
       apply_with_weight="true"
       apply_no_weight="true"
       helper_size="0"
       steps="2"
       weight="33.333333"
       lpeversion="1"
       is_visible="true"
       id="path-effect947"
       effect="bspline" />
    <inkscape:path-effect
       only_selected="false"
       apply_with_weight="true"
       apply_no_weight="true"
       helper_size="0"
       steps="2"
       weight="33.333333"
       lpeversion="1"
       is_visible="true"
       id="path-effect943"
       effect="bspline" />
    <inkscape:path-effect
       only_selected="false"
       apply_with_weight="true"
       apply_no_weight="true"
       helper_size="0"
       steps="2"
       weight="33.333333"
       lpeversion="1"
       is_visible="true"
       id="path-effect931"
       effect="bspline" />
    <clipPath
       id="clipPath945"
       clipPathUnits="userSpaceOnUse">
      <rect
         y="105.5"
         x="105.5"
         height="189"
         width="189"
         id="rect947"
         style="fill:none;stroke:#000000;stroke-width:1;stroke-linecap:round" />
    </clipPath>
  </defs>
  <g
     style="display:inline"
     inkscape:groupmode="layer"
     id="layer4"
     inkscape:label="background" />
  <g
     style="display:none"
     inkscape:label="golden"
     id="g3035"
     inkscape:groupmode="layer"
     sodipodi:insensitive="true">
    <ellipse
       ry="52.75"
       rx="52.749996"
       cy="256.48428"
       cx="81.356911"
       id="ellipse2991"
       style="display:inline;opacity:0.15;fill:none;stroke:#000000;stroke-width:0.999998;stroke-linecap:round;stroke-miterlimit:4;stroke-dasharray:none" />
    <ellipse
       ry="84.399956"
       rx="84.399948"
       cy="224.23871"
       cx="81.382812"
       id="ellipse2993"
       style="display:inline;opacity:0.15;fill:none;stroke:#000000;stroke-width:1;stroke-linecap:round;stroke-miterlimit:4;stroke-dasharray:none" />
    <ellipse
       ry="31.649958"
       rx="31.649956"
       cy="256.48428"
       cx="81.356911"
       id="ellipse2995"
       style="display:inline;opacity:0.15;fill:none;stroke:#000000;stroke-width:0.999998;stroke-linecap:round;stroke-miterlimit:4;stroke-dasharray:none" />
    <ellipse
       style="display:inline;opacity:0.15;fill:none;stroke:#000000;stroke-width:1;stroke-linecap:round;stroke-miterlimit:4;stroke-dasharray:none"
       id="ellipse2997"
       cx="117.99693"
       cy="236.58827"
       rx="84.399948"
       ry="84.399956" />
    <ellipse
       ry="31.649958"
       rx="31.649956"
       cy="175.62984"
       cx="117.64326"
       id="ellipse3001"
       style="display:inline;opacity:0.15;fill:none;stroke:#000000;stroke-width:0.999998;stroke-linecap:round;stroke-miterlimit:4;stroke-dasharray:none" />
    <ellipse
       style="display:inline;opacity:0.15;fill:none;stroke:#000000;stroke-width:0.999998;stroke-linecap:round;stroke-miterlimit:4;stroke-dasharray:none"
       id="ellipse3003"
       cx="87.362785"
       cy="153.1891"
       rx="31.649956"
       ry="31.649958" />
    <ellipse
       style="display:inline;opacity:0.15;fill:none;stroke:#000000;stroke-width:0.999998;stroke-linecap:round;stroke-miterlimit:4;stroke-dasharray:none"
       id="ellipse3009"
       cx="30.205286"
       cy="205.30676"
       rx="31.649956"
       ry="31.649958" />
    <ellipse
       style="display:inline;opacity:0.15;fill:none;stroke:#000000;stroke-width:0.999998;stroke-linecap:round;stroke-miterlimit:4;stroke-dasharray:none"
       id="ellipse3013"
       cx="81.382812"
       cy="256.48428"
       rx="10.550007"
       ry="10.550008" />
    <path
       id="path3017"
       d="M -69.331339,256.48428 H 243.02559"
       style="opacity:0.15;fill:#ff00ff;stroke:#000000;stroke-width:1px;stroke-linecap:butt;stroke-linejoin:miter;stroke-opacity:1" />
    <ellipse
       ry="21.100052"
       rx="21.10005"
       cy="256.48428"
       cx="81.356911"
       id="ellipse3019"
       style="display:inline;opacity:0.15;fill:none;stroke:#000000;stroke-width:0.999996;stroke-linecap:round;stroke-miterlimit:4;stroke-dasharray:none" />
    <path
       style="opacity:0.15;fill:#ff00ff;stroke:#000000;stroke-width:1px;stroke-linecap:butt;stroke-linejoin:miter;stroke-opacity:1"
       d="M -29.052041,366.91913 191.81766,146.04943"
       id="path3021" />
    <path
       id="path3023"
       d="m -29.05204,146.04943 220.8697,220.8697"
       style="opacity:0.15;fill:#ff00ff;stroke:#000000;stroke-width:1px;stroke-linecap:butt;stroke-linejoin:miter;stroke-opacity:1" />
    <path
       id="path3025"
       d="m 81.382809,412.66274 1e-6,-312.35692"
       style="opacity:0.15;fill:#ff00ff;stroke:#000000;stroke-width:1px;stroke-linecap:butt;stroke-linejoin:miter;stroke-opacity:1" />
    <ellipse
       style="display:inline;opacity:0.15;fill:none;stroke:#000000;stroke-width:0.999998;stroke-linecap:round;stroke-miterlimit:4;stroke-dasharray:none"
       id="ellipse3027"
       cx="70.620003"
       cy="193.15488"
       rx="10.550007"
       ry="10.550008" />
    <ellipse
       style="display:inline;opacity:0.15;fill:none;stroke:#000000;stroke-width:0.999998;stroke-linecap:round;stroke-miterlimit:4;stroke-dasharray:none"
       id="ellipse3029"
       cx="113.08164"
       cy="143.08511"
       rx="10.550007"
       ry="10.550008" />
    <ellipse
       ry="10.550008"
       rx="10.550007"
       cy="148.99222"
       cx="119.66438"
       id="ellipse3031"
       style="display:inline;opacity:0.15;fill:none;stroke:#000000;stroke-width:0.999998;stroke-linecap:round;stroke-miterlimit:4;stroke-dasharray:none" />
    <path
       id="path3033"
       style="display:inline;opacity:0.252805;fill:none;stroke:#000000;stroke-width:0.999996;stroke-linecap:round;stroke-miterlimit:4;stroke-dasharray:none"
       d="m 124.38686,-211.19526 v -42.20008 h 42.20012 v 42.20008 z m 0,-42.20011 v -63.29993 h 63.29993 v 63.29993 z m 0,211 v -168.79991 h 168.79992 v 168.79991 z m 21.10008,-211.00002 a 21.100052,21.10005 0 0 1 21.10005,21.10005 21.100052,21.10005 0 0 1 -21.10005,21.10003 21.100052,21.10005 0 0 1 -21.10006,-21.10003 21.100052,21.10005 0 0 1 21.10006,-21.10005 m 10.5499,-63.29997 a 31.649958,31.649954 0 0 1 31.64995,31.64995 31.649958,31.649954 0 0 1 -31.64995,31.64997 31.649958,31.649954 0 0 1 -31.64997,-31.64997 31.649958,31.649954 0 0 1 31.64997,-31.64995 m 52.75,105.4999 a 84.399956,84.399948 0 0 1 84.39995,84.39995 84.399956,84.399948 0 0 1 -84.39995,84.39994 84.399956,84.399948 0 0 1 -84.39997,-84.39994 84.399956,84.399948 0 0 1 84.39997,-84.39995 m -42.19986,-21.09988 v -21.10001 h 21.10001 v 21.10001 z m 10.55002,-21.10005 a 10.550008,10.550007 0 0 1 10.55,10.55001 10.550008,10.550007 0 0 1 -10.55,10.55 10.550008,10.550007 0 0 1 -10.55001,-10.55 10.550008,10.550007 0 0 1 10.55001,-10.55001 m 10.5498,42.20025 v -105.49999 h 105.5 v 105.49999 z m 52.75,-105.49998 a 52.75,52.749996 0 0 1 52.75,52.75 52.75,52.749996 0 0 1 -52.75,52.74998 52.75,52.749996 0 0 1 -52.75,-52.74998 52.75,52.749996 0 0 1 52.75,-52.75" />
    <path
       style="opacity:0.15;fill:none;stroke:#000000;stroke-width:1px;stroke-linecap:butt;stroke-linejoin:miter;stroke-opacity:1"
       d="m 30.205286,173.65681 v 63.29991"
       id="path3037" />
    <path
       style="opacity:0.15;fill:none;stroke:#000000;stroke-width:1px;stroke-linecap:butt;stroke-linejoin:miter;stroke-opacity:1"
       d="M -1.4446697,205.30676 H 61.855242"
       id="path3039" />
    <path
       id="path1288-3"
       style="display:inline;opacity:0.15;fill:none;stroke:#000000;stroke-width:0.999998;stroke-linecap:round;stroke-miterlimit:4;stroke-dasharray:none;stroke-opacity:1"
       d="M 90.241673,203.86849" />
    <path
       style="display:inline;opacity:0.15;fill:none;stroke:#000000;stroke-width:0.999998;stroke-linecap:round;stroke-miterlimit:4;stroke-dasharray:none;stroke-opacity:1"
       d="M 69.065003,203.70489"
       id="path1063-2" />
    <ellipse
       transform="scale(-1,1)"
       ry="10.550008"
       rx="10.550007"
       cy="193.15488"
       cx="-92.145615"
       id="ellipse1234"
       style="display:inline;opacity:0.15;fill:none;stroke:#000000;stroke-width:0.999998;stroke-linecap:round;stroke-miterlimit:4;stroke-dasharray:none" />
    <ellipse
       ry="31.649958"
       rx="31.649956"
       cy="203.21928"
       cx="113.13266"
       id="ellipse1248"
       style="display:inline;opacity:0.15;fill:none;stroke:#000000;stroke-width:0.999998;stroke-linecap:round;stroke-miterlimit:4;stroke-dasharray:none" />
    <ellipse
       style="display:inline;opacity:0.15;fill:none;stroke:#000000;stroke-width:0.999998;stroke-linecap:round;stroke-miterlimit:4;stroke-dasharray:none"
       id="ellipse1250"
       cx="108.8409"
       cy="208.09119"
       rx="31.649956"
       ry="31.649958" />
    <ellipse
       transform="scale(-1,1)"
       ry="84.399956"
       rx="84.399948"
       cy="236.58827"
       cx="-44.768692"
       id="ellipse1635"
       style="display:inline;opacity:0.15;fill:none;stroke:#000000;stroke-width:1;stroke-linecap:round;stroke-miterlimit:4;stroke-dasharray:none" />
    <ellipse
       transform="scale(-1,1)"
       ry="31.649958"
       rx="31.649956"
       cy="205.30676"
       cx="-132.56033"
       id="ellipse1637"
       style="display:inline;opacity:0.15;fill:none;stroke:#000000;stroke-width:0.999998;stroke-linecap:round;stroke-miterlimit:4;stroke-dasharray:none" />
    <path
       id="path1639"
       d="m 132.56034,173.65681 v 63.29991"
       style="opacity:0.15;fill:none;stroke:#000000;stroke-width:1px;stroke-linecap:butt;stroke-linejoin:miter;stroke-opacity:1" />
    <path
       id="path1641"
       d="M 164.21029,205.30676 H 100.91038"
       style="opacity:0.15;fill:none;stroke:#000000;stroke-width:1px;stroke-linecap:butt;stroke-linejoin:miter;stroke-opacity:1" />
  </g>
  <g
     style="display:inline"
     inkscape:label="refine"
     id="layer1"
     inkscape:groupmode="layer">
    <g
       style="stroke-width:1.01016"
       transform="matrix(0.98993577,0,0,0.98995026,-8.8788205,-11.746954)"
       id="g1153">
      <path
         sodipodi:nodetypes="cccccc"
         id="path1034"
         d="m 144.67953,13.38139 c -0.94017,3.18105 -1.59509,3.947649 -0.45848,8.547683 0.49675,1.708423 0.31596,1.456107 1.38842,1.704691 4.32566,0.252389 6.29566,0.468286 10.09092,-1.863481 1.09837,25.393174 -21.19376,40.790108 -38.473,40.028444 -6.26327,-19.872116 5.77011,-43.451952 27.45214,-48.417337 z"
         style="fill:#ffdbed;fill-opacity:1;stroke:none;stroke-width:0.0505081;stroke-linecap:round;stroke-miterlimit:4;stroke-dasharray:none" />
      <path
         sodipodi:nodetypes="ccccc"
         id="path942"
         d="m 105.30668,84.506609 c 1.00189,-7.748031 4.3395,-15.105367 11.92071,-22.707882 -4.63571,6.99174 -6.95559,12.748011 -7.11878,22.756007 -1.48757,-0.05665 -3.72847,-0.04109 -4.80193,-0.04814 z"
         style="fill:#734e30;fill-opacity:1;stroke:none;stroke-width:1.01016;stroke-linecap:round" />
      <path
         sodipodi:nodetypes="ssscccssssssssssssssccccsss"
         id="path953"
         d="M 107.54728,212.35247 C 85.607367,211.68115 63.592166,204.03284 46.253748,190.19665 41.897231,186.72012 32.776734,178.16015 32.966642,177.58218 L 59.084853,98.094118 57.660182,96.670649 56.235507,95.24718 57.305125,91.903621 c 2.742284,-8.572201 6.702182,-16.100858 11.376225,-23.336928 1.94195,-3.006409 6.264146,-8.725205 6.558888,-8.725205 0.273866,0 4.141534,4.935616 5.212195,6.647832 1.156936,1.850183 3.070072,5.809866 3.605463,7.482332 0.824406,2.575258 1.482687,4.133935 2.598358,5.750826 1.819309,2.636632 5.062935,4.344022 8.279865,4.953971 1.917998,0.363662 29.132321,0.169389 31.092361,-0.193957 2.24339,-0.415895 4.53634,-1.836045 6.22491,-3.524253 1.69823,-1.69786 2.41307,-3.27099 3.44693,-6.368518 1.3676,-4.097359 4.2787,-9.274314 7.13222,-12.657683 0.60201,-0.713807 1.87483,-2.18258 1.9889,-2.18258 0.35686,0 5.48436,7.223561 7.99089,11.212746 3.95606,6.296119 8.81324,17.479023 10.42265,22.669252 l 0.50102,1.615724 -1.28351,1.282414 c 0,0 -1.55303,1.551724 -1.56585,1.564524 l 26.05522,79.559522 -2.88665,3.13816 c -4.52507,4.91931 -26.30124,26.65178 -60.30754,30.66341 -4.27754,0.5046 -11.89502,1.02899 -16.20039,0.89726 z"
         style="fill:#ffeecc;fill-opacity:1;stroke:none;stroke-width:1.01016;stroke-linecap:round" />
      <ellipse
         ry="3.6747255"
         rx="3.754003"
         cy="130.83205"
         cx="91.829857"
         id="path1566-9"
         style="display:inline;fill:#333333;fill-opacity:1;stroke:#333333;stroke-width:1.01016;stroke-linecap:round;stroke-miterlimit:4;stroke-dasharray:none;stroke-opacity:1" />
      <ellipse
         style="display:inline;fill:#333333;fill-opacity:1;stroke:#333333;stroke-width:1.01016;stroke-linecap:round;stroke-miterlimit:4;stroke-dasharray:none;stroke-opacity:1"
         id="ellipse1687-2"
         cx="128.11017"
         cy="130.86356"
         rx="3.754003"
         ry="3.6747255" />
      <path
         d="M 135.60838,148.98406 A 25.654095,25.648592 0 0 1 109.95429,174.63265 25.654095,25.648592 0 0 1 84.300199,148.98406"
         style="display:inline;fill:none;stroke:#333333;stroke-width:4.04064;stroke-linecap:round;stroke-miterlimit:4;stroke-dasharray:none;stroke-opacity:1"
         id="ellipse1689-0" />
      <g
         style="stroke:#734e30;stroke-width:0.830928;stroke-opacity:1"
         id="g1430"
         transform="matrix(1.215831,0,0,1.2155701,11.037999,-162.79054)">
        <path
           sodipodi:nodetypes="csc"
           d="m 81.48644,203.70589 c -0.002,-0.16219 -0.004,-0.3244 -0.004,-0.48661 0,-6.58831 2.04689,-13.00345 5.87217,-18.36751"
           style="display:inline;fill:none;stroke:#734e30;stroke-width:0.830926;stroke-linecap:round;stroke-miterlimit:4;stroke-dasharray:none;stroke-opacity:1"
           id="path1276" />
        <path
           sodipodi:nodetypes="cc"
           d="m 77.4963,203.70524 c 1.01273,-7.23753 4.48285,-13.88679 9.85059,-18.8461"
           style="display:inline;fill:none;stroke:#734e30;stroke-width:0.830926;stroke-linecap:round;stroke-miterlimit:4;stroke-dasharray:none;stroke-opacity:1"
           id="path1279" />
      </g>
      <g
         style="stroke:#ffeecc;stroke-width:0.830928;stroke-opacity:1"
         id="g1426"
         transform="matrix(1.215831,0,0,1.2155701,11.037999,-162.79054)">
        <path
           style="display:inline;fill:none;stroke:#ffeecc;stroke-width:0.830926;stroke-linecap:round;stroke-miterlimit:4;stroke-dasharray:none;stroke-opacity:1"
           d="m 18.03593,280.01077 21.48178,-65.3916"
           id="path1077-2" />
        <path
           sodipodi:nodetypes="cc"
           style="display:inline;fill:none;stroke:#ffeecc;stroke-width:0.830926;stroke-linecap:round;stroke-miterlimit:4;stroke-dasharray:none;stroke-opacity:1"
           d="m 37.17417,212.27712 2.34354,2.34206"
           id="path1075-8" />
        <path
           style="display:inline;fill:none;stroke:#ffeecc;stroke-width:0.830926;stroke-linecap:round;stroke-miterlimit:4;stroke-dasharray:none;stroke-opacity:1"
           d="m 144.67789,280.06956 c -16.02179,18.1638 -39.07482,28.5691 -63.29508,28.5691 -24.24759,0 -47.3239,-10.42871 -63.34688,-28.62788"
           id="path1069-3" />
        <path
           sodipodi:nodetypes="cc"
           d="m 52.73103,183.07459 c 3.67951,3.74197 6.41202,8.37273 7.87699,13.40638"
           style="display:inline;fill:none;stroke:#ffeecc;stroke-width:0.830926;stroke-linecap:round;stroke-miterlimit:4;stroke-dasharray:none;stroke-opacity:1"
           id="path1221" />
        <path
           sodipodi:nodetypes="cc"
           d="m 37.17416,212.27712 c 3.20275,-10.64315 8.51556,-20.60287 15.55687,-29.20253"
           style="display:inline;fill:none;stroke:#ffeecc;stroke-width:0.830928;stroke-linecap:round;stroke-miterlimit:4;stroke-dasharray:none;stroke-opacity:1"
           id="path1181" />
        <path
           sodipodi:nodetypes="csc"
           d="m 70.76526,203.70489 -0.14526,-1e-5 c -4.54497,-3.1e-4 -8.57909,-2.91073 -10.01198,-7.22391"
           style="display:inline;fill:none;stroke:#ffeecc;stroke-width:0.830926;stroke-linecap:round;stroke-miterlimit:4;stroke-dasharray:none;stroke-opacity:1"
           id="path1218" />
        <path
           id="path1238"
           style="display:inline;fill:none;stroke:#ffeecc;stroke-width:0.830926;stroke-linecap:round;stroke-miterlimit:4;stroke-dasharray:none;stroke-opacity:1"
           d="m 110.03457,183.07459 c -3.67951,3.74197 -6.41202,8.37273 -7.87699,13.40638"
           sodipodi:nodetypes="cc" />
        <path
           id="path1242"
           style="display:inline;fill:none;stroke:#ffeecc;stroke-width:0.830926;stroke-linecap:round;stroke-miterlimit:4;stroke-dasharray:none;stroke-opacity:1"
           d="m 92.00035,203.70489 0.14526,-1e-5 c 4.54496,-3.1e-4 8.57908,-2.91073 10.01197,-7.22391"
           sodipodi:nodetypes="csc" />
        <path
           id="path1643"
           d="m 144.72969,280.01077 -21.48177,-65.3916"
           style="display:inline;fill:none;stroke:#ffeecc;stroke-width:0.830926;stroke-linecap:round;stroke-miterlimit:4;stroke-dasharray:none;stroke-opacity:1" />
        <path
           id="path1645"
           d="m 125.59145,212.27712 -2.34353,2.34206"
           style="display:inline;fill:none;stroke:#ffeecc;stroke-width:0.830926;stroke-linecap:round;stroke-miterlimit:4;stroke-dasharray:none;stroke-opacity:1"
           sodipodi:nodetypes="cc" />
        <path
           id="path1647"
           style="display:inline;fill:none;stroke:#ffeecc;stroke-width:0.830928;stroke-linecap:round;stroke-miterlimit:4;stroke-dasharray:none;stroke-opacity:1"
           d="m 125.59147,212.27712 c -3.20276,-10.64315 -8.51556,-20.60287 -15.55688,-29.20253"
           sodipodi:nodetypes="cc" />
        <path
           id="path1651"
           d="M 70.76526,203.70489 H 92.00035"
           style="fill:none;stroke:#ffeecc;stroke-width:0.830928px;stroke-linecap:butt;stroke-linejoin:miter;stroke-opacity:1" />
      </g>
      <g
         style="fill:#b3b3b3;stroke-width:0.830928"
         id="g924"
         transform="matrix(1.215831,0,0,1.2155701,11.037999,-162.79054)">
        <path
           id="rect1216"
           style="opacity:1;fill:#b3b3b3;fill-opacity:1;stroke:none;stroke-width:2.49277;stroke-linecap:round;stroke-miterlimit:4;stroke-dasharray:none"
           d="m 87.980469,164.02734 a 25.575958,30.332275 4.082991 0 0 -1.011719,3.09961 l 28.37695,1.26758 a 31.889664,38.073364 31.468265 0 0 1.57032,-3.07617 z" />
        <path
           id="rect1218"
           style="opacity:1;fill:#b3b3b3;fill-opacity:1;stroke:none;stroke-width:2.49277;stroke-linecap:round;stroke-miterlimit:4;stroke-dasharray:none"
           d="m 86.136719,170.96484 a 25.575958,30.332275 4.082991 0 0 -0.359375,3.10743 25.575958,30.332275 4.082991 0 0 -0.002,0.0215 l 11.15239,0.49803 0.322266,-3.13086 z" />
        <path
           id="rect1220"
           style="opacity:1;fill:#b3b3b3;fill-opacity:1;stroke:none;stroke-width:2.49277;stroke-linecap:round;stroke-miterlimit:4;stroke-dasharray:none"
           d="m 97.25,171.46094 -3.011719,0.9082 3.964844,10.83984 a 31.889664,38.073364 55.581746 0 0 2.912105,-1.17773 z" />
        <path
           id="rect1222"
           style="opacity:1;fill:#b3b3b3;fill-opacity:1;stroke:none;stroke-width:2.49277;stroke-linecap:round;stroke-miterlimit:4;stroke-dasharray:none"
           d="m 102.49609,164.85547 -3.013668,0.9082 5.203128,14.22461 a 31.889664,38.073364 55.581746 0 0 0.58593,-0.39453 31.889664,38.073364 55.581746 0 0 2.06641,-1.50195 z" />
        <path
           id="rect1236"
           style="opacity:1;fill:#b3b3b3;fill-opacity:1;stroke:none;stroke-width:2.49277;stroke-linecap:round;stroke-miterlimit:4;stroke-dasharray:none"
           d="m 106.47852,150.71875 -8.083989,10.81445 3.791019,0.15625 6.82031,-9.125 z" />
        <path
           id="rect1238"
           style="opacity:1;fill:#b3b3b3;fill-opacity:1;stroke:none;stroke-width:2.49277;stroke-linecap:round;stroke-miterlimit:4;stroke-dasharray:none"
           d="m 111.61523,154.4707 -5.51757,7.38086 3.79296,0.15821 4.25391,-5.69336 z" />
      </g>
      <g
         style="stroke:#ffdbed;stroke-width:0.830928;stroke-opacity:1"
         id="g1436"
         transform="matrix(1.215831,0,0,1.2155701,11.037999,-162.79054)">
        <path
           id="path1038-4"
           style="display:inline;fill:none;stroke:#ffdbed;stroke-width:0.830928;stroke-linecap:round;stroke-miterlimit:4;stroke-dasharray:none;stroke-opacity:1"
           d="m 118.98232,151.83067 c 0.02,0.46278 0.0303,0.89317 0.0303,1.35847 0,17.47827 -14.16779,31.6478 -31.64603,31.64996"
           sodipodi:nodetypes="csc" />
        <path
           id="path1095-5"
           style="display:inline;fill:none;stroke:#ffdbed;stroke-width:0.830925;stroke-linecap:round;stroke-miterlimit:4;stroke-dasharray:none;stroke-opacity:1"
           d="m 87.36234,184.83774 c -0.9077,-2.98504 -1.36903,-6.08789 -1.36903,-9.20788 0,-14.8149 10.17889,-27.2524 23.92454,-30.70039"
           sodipodi:nodetypes="csc" />
        <path
           id="path1092-0"
           style="display:inline;fill:none;stroke:#ffdbed;stroke-width:0.830926;stroke-linecap:round;stroke-miterlimit:4;stroke-dasharray:none;stroke-opacity:1"
           d="m 109.97871,153.17443 c -0.57021,-1.32056 -0.86435,-2.74378 -0.86435,-4.18219 0,-1.3835 0.27475,-2.7843 0.80349,-4.06278"
           sodipodi:nodetypes="csc" />
        <path
           id="path1141-3"
           style="display:inline;fill:none;stroke:#ffdbed;stroke-width:0.830926;stroke-linecap:round;stroke-miterlimit:4;stroke-dasharray:none;stroke-opacity:1"
           d="m 118.98232,151.83067 c -1.74312,1.1761 -3.79792,1.80447 -5.90069,1.80447 -1.0506,0 -2.09868,-0.15205 -3.10292,-0.46071"
           sodipodi:nodetypes="csc" />
      </g>
    </g>
  </g>
</svg>
