<svg xmlns="http://www.w3.org/2000/svg" xmlns:osb="http://www.openswatchbook.org/uri/2009/osb" xmlns:svg="http://www.w3.org/2000/svg" id="svg28" version="1.1" viewBox="0 0 400 400"><metadata id="metadata32"/><defs id="defs2"><linearGradient id="linearGradient2983" osb:paint="solid"><stop id="stop2981" offset="0" style="stop-color:#333;stop-opacity:1"/></linearGradient><clipPath id="clipPath1642" clipPathUnits="userSpaceOnUse"><g id="g1656" transform="matrix(0.13600798,-0.0841443,0.0841443,0.13600798,75.966,158.38225)" style="stroke-width:23.635;stroke-miterlimit:4;stroke-dasharray:none"><g style="fill:#666;stroke-width:23.635;stroke-miterlimit:4;stroke-dasharray:none" id="g1650"><path id="path1644" d="M 0,120 40,60 0,0 h 30 l 40,60 -40,60" style="stroke-width:23.635;stroke-miterlimit:4;stroke-dasharray:none"/><path id="path1646" d="M 136.66667,85 123.33333,65 H 170 v 20" style="stroke-width:23.635;stroke-miterlimit:4;stroke-dasharray:none"/><path id="path1648" d="M 116.66667,55 103.33333,35 H 170 v 20" style="stroke-width:23.635;stroke-miterlimit:4;stroke-dasharray:none"/></g><g style="fill:#999;stroke-width:23.635;stroke-miterlimit:4;stroke-dasharray:none" id="g1654"><path id="path1652" d="M 40,120 80,60 40,0 h 30 l 80,120 H 120 L 95,82.5 70,120" style="stroke-width:23.635;stroke-miterlimit:4;stroke-dasharray:none"/></g></g></clipPath><clipPath id="clipPath1720" clipPathUnits="userSpaceOnUse"><path id="path1722" style="opacity:.24895;fill:navy;fill-rule:evenodd;stroke:#cb4b16;stroke-width:.099999;stroke-linecap:square;stroke-miterlimit:4;stroke-dasharray:none;stop-color:#000" d="M 0.00623559,-55.035339 73.113238,61.837785 17.09908,152.37716 51.703016,173.78564 97.173558,100.28861 116.20307,130.71575 195.46636,185.11017 79.273503,-0.62412967 Z"/></clipPath><clipPath id="clipPath1757" clipPathUnits="userSpaceOnUse"><rect style="opacity:.24895;fill:navy;fill-rule:evenodd;stroke:#cb4b16;stroke-width:.1;stroke-linecap:square;stroke-miterlimit:4;stroke-dasharray:none;stop-color:#000" id="rect1759" width="170.855" height="82.034" x="37.256" y="-147.814" transform="rotate(57.529555)"/></clipPath></defs><g id="layer4" style="display:inline"><rect style="display:inline;opacity:1;fill:#fdf6e3;fill-opacity:1;stroke:none;stroke-width:1;stroke-linecap:round" id="rect992" width="400" height="400" x="-118.643" y="24.834"/></g><g id="g3035" style="display:none;opacity:1"><circle id="ellipse1112" cx="32.822" cy="204.172" style="display:inline;opacity:.15;fill:none;stroke:#000;stroke-width:.999997;stroke-linecap:round;stroke-miterlimit:4;stroke-dasharray:none" r="0"/><circle id="ellipse1114" cx="32.822" cy="204.172" style="display:inline;opacity:.15;fill:none;stroke:#000;stroke-width:.999997;stroke-linecap:round;stroke-miterlimit:4;stroke-dasharray:none" r="0"/><path style="display:inline;opacity:.252805;fill:none;stroke:#000;stroke-width:.999996;stroke-linecap:round;stroke-miterlimit:4;stroke-dasharray:none" id="path109" d="m 240.4368,-316.69512 a 52.75,52.749996 0 0 1 52.75,52.75 52.75,52.749996 0 0 1 -52.75,52.74998 52.75,52.749996 0 0 1 -52.75,-52.74998 52.75,52.749996 0 0 1 52.75,-52.75"/><path style="display:inline;opacity:.252805;fill:none;stroke:#000;stroke-width:.999996;stroke-linecap:round;stroke-miterlimit:4;stroke-dasharray:none" id="path107" d="m 187.6868,-211.19514 v -105.49999 h 105.5 v 105.49999 z"/><path style="display:inline;opacity:.252805;fill:none;stroke:#000;stroke-width:.999996;stroke-linecap:round;stroke-miterlimit:4;stroke-dasharray:none" id="path105" d="m 177.137,-253.39539 a 10.550008,10.550007 0 0 1 10.55,10.55001 10.550008,10.550007 0 0 1 -10.55,10.55 10.550008,10.550007 0 0 1 -10.55001,-10.55 10.550008,10.550007 0 0 1 10.55001,-10.55001"/><path style="display:inline;opacity:.252805;fill:none;stroke:#000;stroke-width:.999996;stroke-linecap:round;stroke-miterlimit:4;stroke-dasharray:none" id="path103" d="m 166.58698,-232.29534 v -21.10001 h 21.10001 v 21.10001 z"/><path style="display:inline;opacity:.252805;fill:none;stroke:#000;stroke-width:.999996;stroke-linecap:round;stroke-miterlimit:4;stroke-dasharray:none" id="path101" d="m 208.78684,-211.19546 a 84.399956,84.399948 0 0 1 84.39995,84.39995 84.399956,84.399948 0 0 1 -84.39995,84.39994 84.399956,84.399948 0 0 1 -84.39997,-84.39994 84.399956,84.399948 0 0 1 84.39997,-84.39995"/><path style="display:inline;opacity:.252805;fill:none;stroke:#000;stroke-width:.999996;stroke-linecap:round;stroke-miterlimit:4;stroke-dasharray:none" id="path99" d="m 156.03684,-316.69536 a 31.649958,31.649954 0 0 1 31.64995,31.64995 31.649958,31.649954 0 0 1 -31.64995,31.64997 31.649958,31.649954 0 0 1 -31.64997,-31.64997 31.649958,31.649954 0 0 1 31.64997,-31.64995"/><path style="display:inline;opacity:.252805;fill:none;stroke:#000;stroke-width:.999996;stroke-linecap:round;stroke-miterlimit:4;stroke-dasharray:none" id="path97" d="m 145.48694,-253.39539 a 21.100052,21.10005 0 0 1 21.10005,21.10005 21.100052,21.10005 0 0 1 -21.10005,21.10003 21.100052,21.10005 0 0 1 -21.10006,-21.10003 21.100052,21.10005 0 0 1 21.10006,-21.10005"/><path style="display:inline;opacity:.252805;fill:none;stroke:#000;stroke-width:.999996;stroke-linecap:round;stroke-miterlimit:4;stroke-dasharray:none" id="path95" d="M 124.38686,-42.39537 V -211.19528 H 293.18678 V -42.39537 Z"/><path style="display:inline;opacity:.252805;fill:none;stroke:#000;stroke-width:.999996;stroke-linecap:round;stroke-miterlimit:4;stroke-dasharray:none" id="path92" d="m 124.38686,-253.39537 v -63.29993 h 63.29993 v 63.29993 z"/><path style="display:inline;opacity:.252805;fill:none;stroke:#000;stroke-width:.999996;stroke-linecap:round;stroke-miterlimit:4;stroke-dasharray:none" id="path973" d="m 124.38686,-211.19526 v -42.20008 h 42.20012 v 42.20008 z"/></g><g id="g997" style="display:inline"><ellipse style="display:inline;opacity:.15;fill:none;stroke:#000;stroke-width:1;stroke-linecap:round;stroke-miterlimit:4;stroke-dasharray:none" id="ellipse1129" cx="81.357" cy="224.834" rx="84.4" ry="84.4"/><ellipse style="display:inline;opacity:.15;fill:none;stroke:#000;stroke-width:1;stroke-linecap:round;stroke-miterlimit:4;stroke-dasharray:none" id="ellipse1132" cx="-81.357" cy="224.834" rx="84.4" ry="84.4" transform="scale(-1,1)"/></g><g id="layer14" style="display:inline;opacity:1"><g id="layer11" style="display:inline;opacity:1"><ellipse id="ellipse1022" cx="104.683" cy="177.522" rx="31.65" ry="31.65" style="display:inline;opacity:.2;fill:none;stroke:#000;stroke-width:.999998;stroke-linecap:round;stroke-miterlimit:4;stroke-dasharray:none"/><path style="display:inline;opacity:.252805;fill:none;stroke:#000;stroke-width:.999996;stroke-linecap:round;stroke-miterlimit:4;stroke-dasharray:none" id="path113" d="m 104.6827,209.17181 a 10.550008,10.550007 0 0 1 10.55,10.55001 10.550008,10.550007 0 0 1 -10.55,10.55 10.550008,10.550007 0 0 1 -10.550007,-10.55 10.550008,10.550007 0 0 1 10.550007,-10.55001"/><ellipse id="ellipse116" cx="104.683" cy="198.622" rx="31.65" ry="31.65" style="display:inline;opacity:.2;fill:none;stroke:#000;stroke-width:.999998;stroke-linecap:round;stroke-miterlimit:4;stroke-dasharray:none"/></g><g id="layer6" style="display:inline;opacity:1"><ellipse id="ellipse1078" cx="81.357" cy="150.984" rx="31.65" ry="31.65" style="display:inline;opacity:.2;fill:none;stroke:#000;stroke-width:.999998;stroke-linecap:round;stroke-miterlimit:4;stroke-dasharray:none"/></g><g id="layer7" style="display:inline;opacity:1"><ellipse style="display:inline;opacity:.2;fill:none;stroke:#000;stroke-width:1;stroke-linecap:round;stroke-miterlimit:4;stroke-dasharray:none;stroke-opacity:1" id="ellipse1002" cx="81.357" cy="224.834" rx="84.4" ry="84.4"/><ellipse style="display:inline;opacity:.2;fill:none;stroke:#000;stroke-width:.999996;stroke-linecap:round;stroke-miterlimit:4;stroke-dasharray:none" id="ellipse1004" cx="81.357" cy="256.484" rx="21.1" ry="21.1"/><path d="M 90.241673,203.86849" style="display:inline;opacity:.2;fill:none;stroke:#000;stroke-width:.999998;stroke-linecap:round;stroke-miterlimit:4;stroke-dasharray:none;stroke-opacity:1" id="path1008"/><path id="path1010" d="M 69.065003,203.70489" style="display:inline;opacity:.2;fill:none;stroke:#000;stroke-width:.999998;stroke-linecap:round;stroke-miterlimit:4;stroke-dasharray:none;stroke-opacity:1"/><path id="path1020" style="display:inline;opacity:.2;fill:none;stroke:#000;stroke-width:.999999px;stroke-linecap:butt;stroke-linejoin:miter;stroke-opacity:1" d="M 96.264265,241.57694 66.436929,271.40429"/><path id="path1198" style="display:inline;opacity:.2;fill:none;stroke:#000;stroke-width:.999999px;stroke-linecap:butt;stroke-linejoin:miter;stroke-opacity:1" d="m 66.443697,241.57109 29.833195,29.8332"/><path style="opacity:.2;fill:none;stroke:#000;stroke-width:1px;stroke-linecap:butt;stroke-linejoin:miter;stroke-opacity:1" id="path94" d="M 60.256861,256.48428 H 102.45696"/><ellipse style="display:inline;opacity:.2;fill:none;stroke:#000;stroke-width:1;stroke-linecap:round;stroke-miterlimit:4;stroke-dasharray:none" id="ellipse1000" cx="81.357" cy="256.484" rx="52.75" ry="52.75"/><ellipse style="display:inline;opacity:.2;fill:none;stroke:#000;stroke-width:1;stroke-linecap:round;stroke-miterlimit:4;stroke-dasharray:none" id="ellipse94" cx="81.357" cy="150.984" rx="52.75" ry="52.75"/><path id="path1019" style="display:inline;opacity:.2;fill:none;stroke:#000;stroke-width:1px;stroke-linecap:butt;stroke-linejoin:miter;stroke-opacity:1" d="M 81.356911,98.234283 4.9184796,314.4349"/><path id="path1022" style="display:inline;opacity:.2;fill:none;stroke:#000;stroke-width:1px;stroke-linecap:butt;stroke-linejoin:miter;stroke-opacity:1" d="M 81.356908,98.234284 157.7953,314.43479"/></g></g><g id="layer2" style="display:inline;opacity:1"><g id="g979" style="display:inline"><g id="layer12" style="display:inline;opacity:1"><path style="opacity:1;fill:#cb4b16;fill-opacity:1;stroke:none;stroke-width:3.6;stroke-linecap:round;stroke-miterlimit:4;stroke-dasharray:none;stroke-opacity:1" id="path1084" d="m 73.355588,203.12391 c -0.498417,-4.56824 -0.678756,-9.56056 1.487229,-15.05199 3.032083,7.27713 6.133436,11.07944 11.726478,15.4042 -4.621156,0.25762 -9.068004,0.21181 -13.213707,-0.35221 z"/></g><g id="layer13" style="display:inline;opacity:1"><path id="path1104" style="display:inline;opacity:1;fill:none;stroke:#cb4b16;stroke-width:1;stroke-linecap:round;stroke-miterlimit:4;stroke-dasharray:none;stroke-opacity:1" d="M 86.570019,203.47663 A 31.649956,31.649958 0 0 1 74.84313,188.07267 m -1.48828,15.05312 a 31.649956,31.649958 0 0 1 -0.322105,-4.50393 31.649956,31.649958 0 0 1 1.810229,-10.55038 m 11.726944,15.40458 a 52.749996,52.75 0 0 1 -5.213007,0.25822 52.749996,52.75 0 0 1 -8.001323,-0.61037"/></g></g><g id="g1057" style="display:inline"><g id="layer8" style="display:inline"><path style="opacity:1;fill:#859900;fill-opacity:1;fill-rule:evenodd;stroke:none;stroke-width:1;stroke-linecap:round;stroke-linejoin:miter;stop-color:#000" id="path1200" d="m 73.295014,181.59026 c -2.368764,-23.04436 17.229532,-39.82874 39.560536,-35.00283 2.9089,25.79835 -21.54988,40.77137 -39.560536,35.00283 z"/><path style="display:inline;opacity:1;fill:#859900;fill-opacity:1;stroke:none;stroke-width:3.6;stroke-linecap:round;stroke-miterlimit:4;stroke-dasharray:none;stroke-opacity:1" id="path1086" d="m 73.295342,181.59044 c 0.119904,1.57567 0.621568,3.36013 1.548893,6.48488 0.95731,-1.76387 1.829816,-3.80229 2.662301,-5.67616 -1.160654,-0.16412 -3.470804,-0.59804 -4.211194,-0.80872 z"/></g><g id="layer9" style="display:inline"><path id="path162" style="display:inline;opacity:1;fill:none;stroke:#859900;stroke-width:.999998;stroke-linecap:round;stroke-miterlimit:4;stroke-dasharray:none;stroke-opacity:1" d="m 73.295342,181.59044 a 31.649956,31.649958 0 0 1 -0.262597,-4.06859 31.649956,31.649958 0 0 1 31.649955,-31.64996 31.649956,31.649958 0 0 1 8.05964,1.04339 m 0.002,4.1e-4 a 31.649956,31.649958 0 0 1 0.2626,4.06859 v 0 a 31.649956,31.649958 0 0 1 -31.649959,31.64996 31.649956,31.649958 0 0 1 -8.059634,-1.04339"/><path id="path1100" style="display:inline;opacity:1;fill:none;stroke:#859900;stroke-width:1;stroke-linecap:round;stroke-miterlimit:4;stroke-dasharray:none;stroke-opacity:1" d="m 74.84313,188.07267 a 31.649956,31.649958 0 0 1 -1.547788,-6.48223 m 1.547632,6.48104 a 31.649956,31.649958 0 0 1 2.6637,-5.67255 m 5.81e-4,3.2e-4 a 31.649956,31.649958 0 0 1 -4.209672,-0.80831"/></g></g><g id="layer1" style="display:inline;opacity:1"><g id="layer3" style="display:inline;opacity:1"><path id="path953" d="m 79.214494,309.20713 c -21.4896,-0.0404 -44.606243,-9.65514 -62.008114,-29.52701 l 30.995092,-87.66806 c 9.898844,7.19173 18.478087,11.52514 33.155439,11.72222 16.950678,-0.1807 25.371489,-6.43414 33.155429,-11.72221 l 30.99488,87.66678 c -18.742,21.5895 -42.9796,29.96947 -66.292726,29.52828 z" style="display:inline;opacity:1;fill:#b58900;fill-opacity:1;stroke:none;stroke-width:1;stroke-linecap:round"/></g><g id="layer15" style="display:inline;opacity:1"><path id="path995" style="display:inline;opacity:1;fill:none;stroke:#b58900;stroke-width:1px;stroke-linecap:round;stroke-linejoin:miter;stroke-opacity:1" d="m 114.51217,192.01158 30.99505,87.66727 m 7.9e-4,6.1e-4 A 84.399948,84.399956 0 0 1 81.356911,309.23428 84.399948,84.399956 0 0 1 17.20638,279.68012 M 48.201643,192.01158 17.206594,279.67885 M 114.5128,192.0117 A 52.749996,52.75 0 0 1 81.356911,203.73428 52.749996,52.75 0 0 1 48.201283,192.01191"/></g></g><g id="g986" style="display:inline"><ellipse id="ellipse922" cx="66.45" cy="241.551" rx="3.088" ry="3.023" style="display:inline;opacity:1;fill:#073642;fill-opacity:1;stroke:#073642;stroke-width:1.5;stroke-linecap:round;stroke-miterlimit:4;stroke-dasharray:none;stroke-opacity:1"/><ellipse style="display:inline;opacity:1;fill:#073642;fill-opacity:1;stroke:#073642;stroke-width:1.5;stroke-linecap:round;stroke-miterlimit:4;stroke-dasharray:none;stroke-opacity:1" id="ellipse924" cx="96.29" cy="241.577" rx="3.088" ry="3.023"/><path d="M 102.45699,256.48426 A 21.10005,21.100052 0 0 1 81.356944,277.58431 21.10005,21.100052 0 0 1 60.256894,256.48426" style="display:inline;opacity:1;fill:none;stroke:#073642;stroke-width:4;stroke-linecap:round;stroke-miterlimit:4;stroke-dasharray:none;stroke-opacity:1" id="path926"/></g></g></svg>