<?xml version="1.0" encoding="UTF-8" standalone="no"?>
<svg
   xmlns:osb="http://www.openswatchbook.org/uri/2009/osb"
   xmlns:dc="http://purl.org/dc/elements/1.1/"
   xmlns:cc="http://creativecommons.org/ns#"
   xmlns:rdf="http://www.w3.org/1999/02/22-rdf-syntax-ns#"
   xmlns:svg="http://www.w3.org/2000/svg"
   xmlns="http://www.w3.org/2000/svg"
   xmlns:sodipodi="http://sodipodi.sourceforge.net/DTD/sodipodi-0.dtd"
   xmlns:inkscape="http://www.inkscape.org/namespaces/inkscape"
   inkscape:version="1.0 (4035a4fb49, 2020-05-01)"
   sodipodi:docname="unoptimized-favicon.svg"
   id="svg28"
   version="1.1"
   viewBox="0 0 200 200"
   width="200"
   height="200">
  <metadata
     id="metadata32">
    <rdf:RDF>
      <cc:Work
         rdf:about="">
        <dc:format>image/svg+xml</dc:format>
        <dc:type
           rdf:resource="http://purl.org/dc/dcmitype/StillImage" />
        <dc:title></dc:title>
      </cc:Work>
    </rdf:RDF>
  </metadata>
  <sodipodi:namedview
     inkscape:document-rotation="0"
     inkscape:snap-others="true"
     inkscape:object-nodes="true"
     inkscape:snap-smooth-nodes="true"
     inkscape:snap-nodes="true"
     inkscape:snap-bbox-midpoints="true"
     inkscape:snap-bbox-edge-midpoints="true"
     inkscape:bbox-nodes="true"
     inkscape:bbox-paths="false"
     inkscape:snap-bbox="false"
     inkscape:snap-object-midpoints="true"
     inkscape:snap-center="true"
     inkscape:snap-midpoints="false"
     inkscape:snap-intersection-paths="true"
     inkscape:object-paths="true"
     inkscape:current-layer="layer1"
     inkscape:window-maximized="0"
     inkscape:window-y="30"
     inkscape:window-x="8"
     inkscape:cy="111.67516"
     inkscape:cx="46.802336"
     inkscape:zoom="2.3908969"
     showborder="true"
     showgrid="false"
     id="namedview30"
     inkscape:window-height="1042"
     inkscape:window-width="1904"
     inkscape:pageshadow="2"
     inkscape:pageopacity="0"
     guidetolerance="10"
     gridtolerance="10"
     objecttolerance="10"
     borderopacity="1"
     bordercolor="#666666"
     pagecolor="#ffffff"
     showguides="false" />
  <defs
     id="defs2">
    <linearGradient
       id="linearGradient2983"
       osb:paint="solid">
      <stop
         style="stop-color:#333333;stop-opacity:1;"
         offset="0"
         id="stop2981" />
    </linearGradient>
    <inkscape:path-effect
       effect="bspline"
       id="path-effect1572"
       is_visible="true"
       lpeversion="1"
       weight="33.333333"
       steps="2"
       helper_size="0"
       apply_no_weight="true"
       apply_with_weight="true"
       only_selected="false" />
    <inkscape:path-effect
       effect="bspline"
       id="path-effect1558"
       is_visible="true"
       lpeversion="1"
       weight="33.333333"
       steps="2"
       helper_size="0"
       apply_no_weight="true"
       apply_with_weight="true"
       only_selected="false" />
    <inkscape:path-effect
       id="path-effect4"
       effect="bspline"
       is_visible="true"
       lpeversion="0"
       weight="33.333333"
       steps="2"
       helper_size="0"
       apply_no_weight="true"
       apply_with_weight="true"
       only_selected="false" />
    <inkscape:path-effect
       only_selected="false"
       apply_with_weight="true"
       apply_no_weight="true"
       helper_size="0"
       steps="2"
       weight="33.333333"
       lpeversion="1"
       is_visible="true"
       id="path-effect1329"
       effect="bspline" />
    <inkscape:path-effect
       only_selected="false"
       apply_with_weight="true"
       apply_no_weight="true"
       helper_size="0"
       steps="2"
       weight="33.333333"
       lpeversion="1"
       is_visible="true"
       id="path-effect1325"
       effect="bspline" />
    <inkscape:path-effect
       only_selected="false"
       apply_with_weight="true"
       apply_no_weight="true"
       helper_size="0"
       steps="2"
       weight="33.333333"
       lpeversion="1"
       is_visible="true"
       id="path-effect967"
       effect="bspline" />
    <inkscape:path-effect
       only_selected="false"
       apply_with_weight="true"
       apply_no_weight="true"
       helper_size="0"
       steps="2"
       weight="33.333333"
       lpeversion="1"
       is_visible="true"
       id="path-effect951"
       effect="bspline" />
    <inkscape:path-effect
       only_selected="false"
       apply_with_weight="true"
       apply_no_weight="true"
       helper_size="0"
       steps="2"
       weight="33.333333"
       lpeversion="1"
       is_visible="true"
       id="path-effect947"
       effect="bspline" />
    <inkscape:path-effect
       only_selected="false"
       apply_with_weight="true"
       apply_no_weight="true"
       helper_size="0"
       steps="2"
       weight="33.333333"
       lpeversion="1"
       is_visible="true"
       id="path-effect943"
       effect="bspline" />
    <inkscape:path-effect
       only_selected="false"
       apply_with_weight="true"
       apply_no_weight="true"
       helper_size="0"
       steps="2"
       weight="33.333333"
       lpeversion="1"
       is_visible="true"
       id="path-effect931"
       effect="bspline" />
    <clipPath
       id="clipPath945"
       clipPathUnits="userSpaceOnUse">
      <rect
         y="105.5"
         x="105.5"
         height="189"
         width="189"
         id="rect947"
         style="fill:none;stroke:#000000;stroke-width:1;stroke-linecap:round" />
    </clipPath>
  </defs>
  <g
     style="display:inline"
     inkscape:groupmode="layer"
     id="layer4"
     inkscape:label="background" />
  <g
     style="display:none"
     inkscape:label="golden"
     id="g3035"
     inkscape:groupmode="layer"
     sodipodi:insensitive="true">
    <ellipse
       ry="52.75"
       rx="52.749996"
       cy="256.48428"
       cx="81.356911"
       id="ellipse2991"
       style="display:inline;opacity:0.15;fill:none;stroke:#000000;stroke-width:0.999998;stroke-linecap:round;stroke-miterlimit:4;stroke-dasharray:none" />
    <ellipse
       ry="84.399956"
       rx="84.399948"
       cy="224.23871"
       cx="81.382812"
       id="ellipse2993"
       style="display:inline;opacity:0.15;fill:none;stroke:#000000;stroke-width:1;stroke-linecap:round;stroke-miterlimit:4;stroke-dasharray:none" />
    <ellipse
       ry="31.649958"
       rx="31.649956"
       cy="256.48428"
       cx="81.356911"
       id="ellipse2995"
       style="display:inline;opacity:0.15;fill:none;stroke:#000000;stroke-width:0.999998;stroke-linecap:round;stroke-miterlimit:4;stroke-dasharray:none" />
    <ellipse
       style="display:inline;opacity:0.15;fill:none;stroke:#000000;stroke-width:1;stroke-linecap:round;stroke-miterlimit:4;stroke-dasharray:none"
       id="ellipse2997"
       cx="117.99693"
       cy="236.58827"
       rx="84.399948"
       ry="84.399956" />
    <ellipse
       ry="31.649958"
       rx="31.649956"
       cy="175.62984"
       cx="117.64326"
       id="ellipse3001"
       style="display:inline;opacity:0.15;fill:none;stroke:#000000;stroke-width:0.999998;stroke-linecap:round;stroke-miterlimit:4;stroke-dasharray:none" />
    <ellipse
       style="display:inline;opacity:0.15;fill:none;stroke:#000000;stroke-width:0.999998;stroke-linecap:round;stroke-miterlimit:4;stroke-dasharray:none"
       id="ellipse3003"
       cx="87.362785"
       cy="153.1891"
       rx="31.649956"
       ry="31.649958" />
    <ellipse
       style="display:inline;opacity:0.15;fill:none;stroke:#000000;stroke-width:0.999998;stroke-linecap:round;stroke-miterlimit:4;stroke-dasharray:none"
       id="ellipse3009"
       cx="30.205286"
       cy="205.30676"
       rx="31.649956"
       ry="31.649958" />
    <ellipse
       style="display:inline;opacity:0.15;fill:none;stroke:#000000;stroke-width:0.999998;stroke-linecap:round;stroke-miterlimit:4;stroke-dasharray:none"
       id="ellipse3013"
       cx="81.382812"
       cy="256.48428"
       rx="10.550007"
       ry="10.550008" />
    <path
       id="path3017"
       d="M -69.331339,256.48428 H 243.02559"
       style="opacity:0.15;fill:#ff00ff;stroke:#000000;stroke-width:1px;stroke-linecap:butt;stroke-linejoin:miter;stroke-opacity:1" />
    <ellipse
       ry="21.100052"
       rx="21.10005"
       cy="256.48428"
       cx="81.356911"
       id="ellipse3019"
       style="display:inline;opacity:0.15;fill:none;stroke:#000000;stroke-width:0.999996;stroke-linecap:round;stroke-miterlimit:4;stroke-dasharray:none" />
    <path
       style="opacity:0.15;fill:#ff00ff;stroke:#000000;stroke-width:1px;stroke-linecap:butt;stroke-linejoin:miter;stroke-opacity:1"
       d="M -29.052041,366.91913 191.81766,146.04943"
       id="path3021" />
    <path
       id="path3023"
       d="m -29.05204,146.04943 220.8697,220.8697"
       style="opacity:0.15;fill:#ff00ff;stroke:#000000;stroke-width:1px;stroke-linecap:butt;stroke-linejoin:miter;stroke-opacity:1" />
    <path
       id="path3025"
       d="m 81.382809,412.66274 1e-6,-312.35692"
       style="opacity:0.15;fill:#ff00ff;stroke:#000000;stroke-width:1px;stroke-linecap:butt;stroke-linejoin:miter;stroke-opacity:1" />
    <ellipse
       style="display:inline;opacity:0.15;fill:none;stroke:#000000;stroke-width:0.999998;stroke-linecap:round;stroke-miterlimit:4;stroke-dasharray:none"
       id="ellipse3027"
       cx="70.620003"
       cy="193.15488"
       rx="10.550007"
       ry="10.550008" />
    <ellipse
       style="display:inline;opacity:0.15;fill:none;stroke:#000000;stroke-width:0.999998;stroke-linecap:round;stroke-miterlimit:4;stroke-dasharray:none"
       id="ellipse3029"
       cx="113.08164"
       cy="143.08511"
       rx="10.550007"
       ry="10.550008" />
    <ellipse
       ry="10.550008"
       rx="10.550007"
       cy="148.99222"
       cx="119.66438"
       id="ellipse3031"
       style="display:inline;opacity:0.15;fill:none;stroke:#000000;stroke-width:0.999998;stroke-linecap:round;stroke-miterlimit:4;stroke-dasharray:none" />
    <path
       id="path3033"
       style="display:inline;opacity:0.252805;fill:none;stroke:#000000;stroke-width:0.999996;stroke-linecap:round;stroke-miterlimit:4;stroke-dasharray:none"
       d="m 124.38686,-211.19526 v -42.20008 h 42.20012 v 42.20008 z m 0,-42.20011 v -63.29993 h 63.29993 v 63.29993 z m 0,211 v -168.79991 h 168.79992 v 168.79991 z m 21.10008,-211.00002 a 21.100052,21.10005 0 0 1 21.10005,21.10005 21.100052,21.10005 0 0 1 -21.10005,21.10003 21.100052,21.10005 0 0 1 -21.10006,-21.10003 21.100052,21.10005 0 0 1 21.10006,-21.10005 m 10.5499,-63.29997 a 31.649958,31.649954 0 0 1 31.64995,31.64995 31.649958,31.649954 0 0 1 -31.64995,31.64997 31.649958,31.649954 0 0 1 -31.64997,-31.64997 31.649958,31.649954 0 0 1 31.64997,-31.64995 m 52.75,105.4999 a 84.399956,84.399948 0 0 1 84.39995,84.39995 84.399956,84.399948 0 0 1 -84.39995,84.39994 84.399956,84.399948 0 0 1 -84.39997,-84.39994 84.399956,84.399948 0 0 1 84.39997,-84.39995 m -42.19986,-21.09988 v -21.10001 h 21.10001 v 21.10001 z m 10.55002,-21.10005 a 10.550008,10.550007 0 0 1 10.55,10.55001 10.550008,10.550007 0 0 1 -10.55,10.55 10.550008,10.550007 0 0 1 -10.55001,-10.55 10.550008,10.550007 0 0 1 10.55001,-10.55001 m 10.5498,42.20025 v -105.49999 h 105.5 v 105.49999 z m 52.75,-105.49998 a 52.75,52.749996 0 0 1 52.75,52.75 52.75,52.749996 0 0 1 -52.75,52.74998 52.75,52.749996 0 0 1 -52.75,-52.74998 52.75,52.749996 0 0 1 52.75,-52.75" />
    <path
       style="opacity:0.15;fill:none;stroke:#000000;stroke-width:1px;stroke-linecap:butt;stroke-linejoin:miter;stroke-opacity:1"
       d="m 30.205286,173.65681 v 63.29991"
       id="path3037" />
    <path
       style="opacity:0.15;fill:none;stroke:#000000;stroke-width:1px;stroke-linecap:butt;stroke-linejoin:miter;stroke-opacity:1"
       d="M -1.4446697,205.30676 H 61.855242"
       id="path3039" />
    <path
       id="path1288-3"
       style="display:inline;opacity:0.15;fill:none;stroke:#000000;stroke-width:0.999998;stroke-linecap:round;stroke-miterlimit:4;stroke-dasharray:none;stroke-opacity:1"
       d="M 90.241673,203.86849" />
    <path
       style="display:inline;opacity:0.15;fill:none;stroke:#000000;stroke-width:0.999998;stroke-linecap:round;stroke-miterlimit:4;stroke-dasharray:none;stroke-opacity:1"
       d="M 69.065003,203.70489"
       id="path1063-2" />
    <ellipse
       transform="scale(-1,1)"
       ry="10.550008"
       rx="10.550007"
       cy="193.15488"
       cx="-92.145615"
       id="ellipse1234"
       style="display:inline;opacity:0.15;fill:none;stroke:#000000;stroke-width:0.999998;stroke-linecap:round;stroke-miterlimit:4;stroke-dasharray:none" />
    <ellipse
       ry="31.649958"
       rx="31.649956"
       cy="203.21928"
       cx="113.13266"
       id="ellipse1248"
       style="display:inline;opacity:0.15;fill:none;stroke:#000000;stroke-width:0.999998;stroke-linecap:round;stroke-miterlimit:4;stroke-dasharray:none" />
    <ellipse
       style="display:inline;opacity:0.15;fill:none;stroke:#000000;stroke-width:0.999998;stroke-linecap:round;stroke-miterlimit:4;stroke-dasharray:none"
       id="ellipse1250"
       cx="108.8409"
       cy="208.09119"
       rx="31.649956"
       ry="31.649958" />
    <ellipse
       transform="scale(-1,1)"
       ry="84.399956"
       rx="84.399948"
       cy="236.58827"
       cx="-44.768692"
       id="ellipse1635"
       style="display:inline;opacity:0.15;fill:none;stroke:#000000;stroke-width:1;stroke-linecap:round;stroke-miterlimit:4;stroke-dasharray:none" />
    <ellipse
       transform="scale(-1,1)"
       ry="31.649958"
       rx="31.649956"
       cy="205.30676"
       cx="-132.56033"
       id="ellipse1637"
       style="display:inline;opacity:0.15;fill:none;stroke:#000000;stroke-width:0.999998;stroke-linecap:round;stroke-miterlimit:4;stroke-dasharray:none" />
    <path
       id="path1639"
       d="m 132.56034,173.65681 v 63.29991"
       style="opacity:0.15;fill:none;stroke:#000000;stroke-width:1px;stroke-linecap:butt;stroke-linejoin:miter;stroke-opacity:1" />
    <path
       id="path1641"
       d="M 164.21029,205.30676 H 100.91038"
       style="opacity:0.15;fill:none;stroke:#000000;stroke-width:1px;stroke-linecap:butt;stroke-linejoin:miter;stroke-opacity:1" />
  </g>
  <g
     style="display:inline"
     inkscape:label="refine"
     id="layer1"
     inkscape:groupmode="layer">
    <path
       style="fill:#fda800;fill-opacity:1;stroke:none;stroke-width:1;stroke-linecap:round"
       d="M 96.923589,197.59272 C 68.864554,196.73396 40.709235,186.95014 18.535067,169.25072 12.963503,164.80349 1.2992652,153.85347 1.5421399,153.1141 L 34.944816,51.431949 33.122798,49.611022 31.300777,47.790105 32.668715,43.51298 C 36.175831,32.547309 41.24016,22.916552 47.217812,13.660074 49.701379,9.8142367 55.229051,2.4986784 55.605997,2.4986784 c 0.350247,0 5.296621,6.3137051 6.665893,8.5039936 1.479611,2.366777 3.926328,7.432056 4.611042,9.571499 1.054335,3.294302 1.896218,5.288183 3.323051,7.356531 2.326722,3.372814 6.475007,5.556931 10.589148,6.337185 2.452931,0.465201 37.257409,0.216685 39.764119,-0.248112 2.86908,-0.532018 5.80155,-2.348693 7.96107,-4.508272 2.17186,-2.171925 3.08606,-4.184292 4.40829,-8.146692 1.74903,-5.241396 5.47203,-11.8638248 9.12141,-16.1918745 0.76991,-0.9131111 2.39772,-2.7919851 2.54362,-2.7919851 0.45639,0 7.01397,9.2404746 10.21958,14.3434946 5.05942,8.054076 11.2713,22.359395 13.32956,28.998805 l 0.64075,2.066854 -1.64148,1.640486 c 0,0 -1.98617,1.984975 -2.00255,2.001358 l 33.32209,101.773581 -3.69174,4.01436 c -5.78713,6.29286 -33.63675,34.09333 -77.12754,39.22504 -5.47055,0.6455 -15.21258,1.3163 -20.718721,1.14779 z"
       id="path953"
       sodipodi:nodetypes="ssscccssssssssssssssccccsss" />
    <g
       transform="matrix(1.5549307,0,0,1.5549734,-26.54463,-282.30051)"
       id="g1426"
       style="stroke:#fda800;stroke-width:0.643107;stroke-opacity:1">
      <path
         id="path1077-2"
         d="m 18.03593,280.01077 21.48178,-65.3916"
         style="display:inline;fill:none;stroke:#fda800;stroke-width:0.643106;stroke-linecap:round;stroke-miterlimit:4;stroke-dasharray:none;stroke-opacity:1" />
      <path
         id="path1075-8"
         d="m 37.17417,212.27712 2.34354,2.34206"
         style="display:inline;fill:none;stroke:#fda800;stroke-width:0.643106;stroke-linecap:round;stroke-miterlimit:4;stroke-dasharray:none;stroke-opacity:1"
         sodipodi:nodetypes="cc" />
      <path
         id="path1069-3"
         d="m 144.67789,280.06956 c -16.02179,18.1638 -39.07482,28.5691 -63.29508,28.5691 -24.24759,0 -47.3239,-10.42871 -63.34688,-28.62788"
         style="display:inline;fill:none;stroke:#fda800;stroke-width:0.643106;stroke-linecap:round;stroke-miterlimit:4;stroke-dasharray:none;stroke-opacity:1" />
      <path
         id="path1221"
         style="display:inline;fill:none;stroke:#fda800;stroke-width:0.643106;stroke-linecap:round;stroke-miterlimit:4;stroke-dasharray:none;stroke-opacity:1"
         d="m 52.73103,183.07459 c 3.67951,3.74197 6.41202,8.37273 7.87699,13.40638"
         sodipodi:nodetypes="cc" />
      <path
         id="path1181"
         style="display:inline;fill:none;stroke:#fda800;stroke-width:0.643107;stroke-linecap:round;stroke-miterlimit:4;stroke-dasharray:none;stroke-opacity:1"
         d="m 37.17416,212.27712 c 3.20275,-10.64315 8.51556,-20.60287 15.55687,-29.20253"
         sodipodi:nodetypes="cc" />
      <path
         id="path1218"
         style="display:inline;fill:none;stroke:#fda800;stroke-width:0.643106;stroke-linecap:round;stroke-miterlimit:4;stroke-dasharray:none;stroke-opacity:1"
         d="m 70.76526,203.70489 -0.14526,-1e-5 c -4.54497,-3.1e-4 -8.57909,-2.91073 -10.01198,-7.22391"
         sodipodi:nodetypes="csc" />
      <path
         sodipodi:nodetypes="cc"
         d="m 110.03457,183.07459 c -3.67951,3.74197 -6.41202,8.37273 -7.87699,13.40638"
         style="display:inline;fill:none;stroke:#fda800;stroke-width:0.643106;stroke-linecap:round;stroke-miterlimit:4;stroke-dasharray:none;stroke-opacity:1"
         id="path1238" />
      <path
         sodipodi:nodetypes="csc"
         d="m 92.00035,203.70489 0.14526,-1e-5 c 4.54496,-3.1e-4 8.57908,-2.91073 10.01197,-7.22391"
         style="display:inline;fill:none;stroke:#fda800;stroke-width:0.643106;stroke-linecap:round;stroke-miterlimit:4;stroke-dasharray:none;stroke-opacity:1"
         id="path1242" />
      <path
         style="display:inline;fill:none;stroke:#fda800;stroke-width:0.643106;stroke-linecap:round;stroke-miterlimit:4;stroke-dasharray:none;stroke-opacity:1"
         d="m 144.72969,280.01077 -21.48177,-65.3916"
         id="path1643" />
      <path
         sodipodi:nodetypes="cc"
         style="display:inline;fill:none;stroke:#fda800;stroke-width:0.643106;stroke-linecap:round;stroke-miterlimit:4;stroke-dasharray:none;stroke-opacity:1"
         d="m 125.59145,212.27712 -2.34353,2.34206"
         id="path1645" />
      <path
         sodipodi:nodetypes="cc"
         d="m 125.59147,212.27712 c -3.20276,-10.64315 -8.51556,-20.60287 -15.55688,-29.20253"
         style="display:inline;fill:none;stroke:#fda800;stroke-width:0.643107;stroke-linecap:round;stroke-miterlimit:4;stroke-dasharray:none;stroke-opacity:1"
         id="path1647" />
      <path
         style="fill:none;stroke:#fda800;stroke-width:0.643107px;stroke-linecap:butt;stroke-linejoin:miter;stroke-opacity:1"
         d="M 70.76526,203.70489 H 92.00035"
         id="path1651" />
    </g>
  </g>
</svg>
