<?xml version="1.0" encoding="UTF-8" standalone="no"?>
<svg
   xmlns:osb="http://www.openswatchbook.org/uri/2009/osb"
   xmlns:dc="http://purl.org/dc/elements/1.1/"
   xmlns:cc="http://creativecommons.org/ns#"
   xmlns:rdf="http://www.w3.org/1999/02/22-rdf-syntax-ns#"
   xmlns:svg="http://www.w3.org/2000/svg"
   xmlns="http://www.w3.org/2000/svg"
   xmlns:sodipodi="http://sodipodi.sourceforge.net/DTD/sodipodi-0.dtd"
   xmlns:inkscape="http://www.inkscape.org/namespaces/inkscape"
   viewBox="0 0 200 200"
   version="1.1"
   id="svg28"
   sodipodi:docname="unoptimized-icon.svg"
   inkscape:version="1.0.1 (3bc2e813f5, 2020-09-07)"
   width="200"
   height="200">
  <metadata
     id="metadata32">
    <rdf:RDF>
      <cc:Work
         rdf:about="">
        <dc:format>image/svg+xml</dc:format>
        <dc:type
           rdf:resource="http://purl.org/dc/dcmitype/StillImage" />
        <dc:title></dc:title>
      </cc:Work>
    </rdf:RDF>
  </metadata>
  <sodipodi:namedview
     showguides="false"
     pagecolor="#ffffff"
     bordercolor="#666666"
     borderopacity="1"
     objecttolerance="10"
     gridtolerance="10"
     guidetolerance="10"
     inkscape:pageopacity="0"
     inkscape:pageshadow="2"
     inkscape:window-width="1904"
     inkscape:window-height="1042"
     id="namedview30"
     showgrid="false"
     showborder="true"
     inkscape:zoom="1.3581648"
     inkscape:cx="35.401956"
     inkscape:cy="82.722573"
     inkscape:window-x="8"
     inkscape:window-y="30"
     inkscape:window-maximized="0"
     inkscape:current-layer="layer4"
     inkscape:object-paths="true"
     inkscape:snap-intersection-paths="true"
     inkscape:snap-midpoints="false"
     inkscape:snap-center="true"
     inkscape:snap-object-midpoints="true"
     inkscape:snap-bbox="false"
     inkscape:bbox-paths="false"
     inkscape:bbox-nodes="true"
     inkscape:snap-bbox-edge-midpoints="true"
     inkscape:snap-bbox-midpoints="true"
     inkscape:snap-nodes="true"
     inkscape:snap-smooth-nodes="true"
     inkscape:object-nodes="true"
     inkscape:snap-others="true"
     inkscape:document-rotation="0"
     inkscape:snap-page="true" />
  <defs
     id="defs2">
    <linearGradient
       osb:paint="solid"
       id="linearGradient2983">
      <stop
         id="stop2981"
         offset="0"
         style="stop-color:#333333;stop-opacity:1;" />
    </linearGradient>
    <clipPath
       clipPathUnits="userSpaceOnUse"
       id="clipPath915">
      <rect
         style="opacity:0.478313;fill:#4d4d4d;stroke:none;stroke-width:1;stop-color:#000000"
         id="rect917"
         width="200"
         height="200"
         x="-18.617188"
         y="124.23871" />
    </clipPath>
  </defs>
  <g
     inkscape:label="background"
     id="layer4"
     inkscape:groupmode="layer"
     style="display:inline"
     sodipodi:insensitive="true">
    <rect
       style="display:inline;opacity:1;fill:#fdf6e3;fill-opacity:1;stroke:#000000;stroke-linecap:round"
       id="rect992"
       width="405.12427"
       height="402.51682"
       x="-123.99378"
       y="29.742279"
       clip-path="url(#clipPath915)"
       transform="translate(18.617187,-124.23871)" />
  </g>
  <g
     inkscape:groupmode="layer"
     id="g3035"
     inkscape:label="golden"
     style="display:none"
     sodipodi:insensitive="true">
    <ellipse
       style="display:inline;opacity:0.15;fill:none;stroke:#000000;stroke-width:0.999998;stroke-linecap:round;stroke-miterlimit:4;stroke-dasharray:none"
       id="ellipse2991"
       cx="99.974098"
       cy="132.24557"
       rx="52.749996"
       ry="52.75" />
    <ellipse
       style="display:inline;opacity:0.15;fill:none;stroke:#000000;stroke-width:1;stroke-linecap:round;stroke-miterlimit:4;stroke-dasharray:none"
       id="ellipse2993"
       cx="100"
       cy="100"
       rx="84.399948"
       ry="84.399956" />
    <ellipse
       style="display:inline;opacity:0.15;fill:none;stroke:#000000;stroke-width:0.999998;stroke-linecap:round;stroke-miterlimit:4;stroke-dasharray:none"
       id="ellipse2995"
       cx="99.974098"
       cy="132.24557"
       rx="31.649956"
       ry="31.649958" />
    <ellipse
       ry="84.399956"
       rx="84.399948"
       cy="112.34956"
       cx="136.61412"
       id="ellipse2997"
       style="display:inline;opacity:0.15;fill:none;stroke:#000000;stroke-width:1;stroke-linecap:round;stroke-miterlimit:4;stroke-dasharray:none" />
    <ellipse
       style="display:inline;opacity:0.15;fill:none;stroke:#000000;stroke-width:0.999998;stroke-linecap:round;stroke-miterlimit:4;stroke-dasharray:none"
       id="ellipse3001"
       cx="136.26044"
       cy="51.391129"
       rx="31.649956"
       ry="31.649958" />
    <ellipse
       ry="31.649958"
       rx="31.649956"
       cy="28.950394"
       cx="105.97997"
       id="ellipse3003"
       style="display:inline;opacity:0.15;fill:none;stroke:#000000;stroke-width:0.999998;stroke-linecap:round;stroke-miterlimit:4;stroke-dasharray:none" />
    <ellipse
       ry="31.649958"
       rx="31.649956"
       cy="81.068054"
       cx="48.822472"
       id="ellipse3009"
       style="display:inline;opacity:0.15;fill:none;stroke:#000000;stroke-width:0.999998;stroke-linecap:round;stroke-miterlimit:4;stroke-dasharray:none" />
    <ellipse
       ry="10.550008"
       rx="10.550007"
       cy="132.24557"
       cx="100"
       id="ellipse3013"
       style="display:inline;opacity:0.15;fill:none;stroke:#000000;stroke-width:0.999998;stroke-linecap:round;stroke-miterlimit:4;stroke-dasharray:none" />
    <path
       style="opacity:0.15;fill:#ff00ff;stroke:#000000;stroke-width:1px;stroke-linecap:butt;stroke-linejoin:miter;stroke-opacity:1"
       d="M -50.714151,132.24557 H 261.64278"
       id="path3017" />
    <ellipse
       style="display:inline;opacity:0.15;fill:none;stroke:#000000;stroke-width:0.999996;stroke-linecap:round;stroke-miterlimit:4;stroke-dasharray:none"
       id="ellipse3019"
       cx="99.974098"
       cy="132.24557"
       rx="21.10005"
       ry="21.100052" />
    <path
       id="path3021"
       d="M -10.434853,242.68042 210.43485,21.810722"
       style="opacity:0.15;fill:#ff00ff;stroke:#000000;stroke-width:1px;stroke-linecap:butt;stroke-linejoin:miter;stroke-opacity:1" />
    <path
       style="opacity:0.15;fill:#ff00ff;stroke:#000000;stroke-width:1px;stroke-linecap:butt;stroke-linejoin:miter;stroke-opacity:1"
       d="M -10.434853,21.810722 210.43485,242.68042"
       id="path3023" />
    <path
       style="opacity:0.15;fill:#ff00ff;stroke:#000000;stroke-width:1px;stroke-linecap:butt;stroke-linejoin:miter;stroke-opacity:1"
       d="m 99.999996,288.42403 10e-7,-312.356918"
       id="path3025" />
    <ellipse
       ry="10.550008"
       rx="10.550007"
       cy="68.916168"
       cx="89.23719"
       id="ellipse3027"
       style="display:inline;opacity:0.15;fill:none;stroke:#000000;stroke-width:0.999998;stroke-linecap:round;stroke-miterlimit:4;stroke-dasharray:none" />
    <ellipse
       ry="10.550008"
       rx="10.550007"
       cy="18.846405"
       cx="131.69882"
       id="ellipse3029"
       style="display:inline;opacity:0.15;fill:none;stroke:#000000;stroke-width:0.999998;stroke-linecap:round;stroke-miterlimit:4;stroke-dasharray:none" />
    <ellipse
       style="display:inline;opacity:0.15;fill:none;stroke:#000000;stroke-width:0.999998;stroke-linecap:round;stroke-miterlimit:4;stroke-dasharray:none"
       id="ellipse3031"
       cx="138.28157"
       cy="24.75351"
       rx="10.550007"
       ry="10.550008" />
    <path
       d="m 124.38686,-211.19526 v -42.20008 h 42.20012 v 42.20008 z m 0,-42.20011 v -63.29993 h 63.29993 v 63.29993 z m 0,211 v -168.79991 h 168.79992 v 168.79991 z m 21.10008,-211.00002 a 21.100052,21.10005 0 0 1 21.10005,21.10005 21.100052,21.10005 0 0 1 -21.10005,21.10003 21.100052,21.10005 0 0 1 -21.10006,-21.10003 21.100052,21.10005 0 0 1 21.10006,-21.10005 m 10.5499,-63.29997 a 31.649958,31.649954 0 0 1 31.64995,31.64995 31.649958,31.649954 0 0 1 -31.64995,31.64997 31.649958,31.649954 0 0 1 -31.64997,-31.64997 31.649958,31.649954 0 0 1 31.64997,-31.64995 m 52.75,105.4999 a 84.399956,84.399948 0 0 1 84.39995,84.39995 84.399956,84.399948 0 0 1 -84.39995,84.39994 84.399956,84.399948 0 0 1 -84.39997,-84.39994 84.399956,84.399948 0 0 1 84.39997,-84.39995 m -42.19986,-21.09988 v -21.10001 h 21.10001 v 21.10001 z m 10.55002,-21.10005 a 10.550008,10.550007 0 0 1 10.55,10.55001 10.550008,10.550007 0 0 1 -10.55,10.55 10.550008,10.550007 0 0 1 -10.55001,-10.55 10.550008,10.550007 0 0 1 10.55001,-10.55001 m 10.5498,42.20025 v -105.49999 h 105.5 v 105.49999 z m 52.75,-105.49998 a 52.75,52.749996 0 0 1 52.75,52.75 52.75,52.749996 0 0 1 -52.75,52.74998 52.75,52.749996 0 0 1 -52.75,-52.74998 52.75,52.749996 0 0 1 52.75,-52.75"
       style="display:inline;opacity:0.252805;fill:none;stroke:#000000;stroke-width:0.999996;stroke-linecap:round;stroke-miterlimit:4;stroke-dasharray:none"
       id="path3033" />
    <path
       id="path3037"
       d="M 48.822473,49.418102 V 112.71801"
       style="opacity:0.15;fill:none;stroke:#000000;stroke-width:1px;stroke-linecap:butt;stroke-linejoin:miter;stroke-opacity:1" />
    <path
       id="path3039"
       d="M 17.172518,81.068052 H 80.47243"
       style="opacity:0.15;fill:none;stroke:#000000;stroke-width:1px;stroke-linecap:butt;stroke-linejoin:miter;stroke-opacity:1" />
    <path
       d="M 108.85886,79.629782"
       style="display:inline;opacity:0.15;fill:none;stroke:#000000;stroke-width:0.999998;stroke-linecap:round;stroke-miterlimit:4;stroke-dasharray:none;stroke-opacity:1"
       id="path1288-3" />
    <path
       id="path1063-2"
       d="M 87.682191,79.466182"
       style="display:inline;opacity:0.15;fill:none;stroke:#000000;stroke-width:0.999998;stroke-linecap:round;stroke-miterlimit:4;stroke-dasharray:none;stroke-opacity:1" />
    <ellipse
       style="display:inline;opacity:0.15;fill:none;stroke:#000000;stroke-width:0.999998;stroke-linecap:round;stroke-miterlimit:4;stroke-dasharray:none"
       id="ellipse1234"
       cx="-110.7628"
       cy="68.916168"
       rx="10.550007"
       ry="10.550008"
       transform="scale(-1,1)" />
    <ellipse
       style="display:inline;opacity:0.15;fill:none;stroke:#000000;stroke-width:0.999998;stroke-linecap:round;stroke-miterlimit:4;stroke-dasharray:none"
       id="ellipse1248"
       cx="131.74985"
       cy="78.980576"
       rx="31.649956"
       ry="31.649958" />
    <ellipse
       ry="31.649958"
       rx="31.649956"
       cy="83.852478"
       cx="127.45808"
       id="ellipse1250"
       style="display:inline;opacity:0.15;fill:none;stroke:#000000;stroke-width:0.999998;stroke-linecap:round;stroke-miterlimit:4;stroke-dasharray:none" />
    <ellipse
       style="display:inline;opacity:0.15;fill:none;stroke:#000000;stroke-width:1;stroke-linecap:round;stroke-miterlimit:4;stroke-dasharray:none"
       id="ellipse1635"
       cx="-63.38588"
       cy="112.34956"
       rx="84.399948"
       ry="84.399956"
       transform="scale(-1,1)" />
    <ellipse
       style="display:inline;opacity:0.15;fill:none;stroke:#000000;stroke-width:0.999998;stroke-linecap:round;stroke-miterlimit:4;stroke-dasharray:none"
       id="ellipse1637"
       cx="-151.17752"
       cy="81.068054"
       rx="31.649956"
       ry="31.649958"
       transform="scale(-1,1)" />
    <path
       style="opacity:0.15;fill:none;stroke:#000000;stroke-width:1px;stroke-linecap:butt;stroke-linejoin:miter;stroke-opacity:1"
       d="M 151.17753,49.418102 V 112.71801"
       id="path1639" />
    <path
       style="opacity:0.15;fill:none;stroke:#000000;stroke-width:1px;stroke-linecap:butt;stroke-linejoin:miter;stroke-opacity:1"
       d="M 182.82748,81.068052 H 119.52757"
       id="path1641" />
  </g>
  <g
     inkscape:groupmode="layer"
     id="g997"
     inkscape:label="center circle"
     style="display:none"
     sodipodi:insensitive="true">
    <ellipse
       style="display:inline;opacity:0.15;fill:none;stroke:#000000;stroke-width:1;stroke-linecap:round;stroke-miterlimit:4;stroke-dasharray:none"
       id="ellipse943"
       cx="100"
       cy="100"
       rx="84.399948"
       ry="84.399956" />
    <path
       d="m 124.38686,-211.19526 v -42.20008 h 42.20012 v 42.20008 z m 0,-42.20011 v -63.29993 h 63.29993 v 63.29993 z m 0,211 v -168.79991 h 168.79992 v 168.79991 z m 21.10008,-211.00002 a 21.100052,21.10005 0 0 1 21.10005,21.10005 21.100052,21.10005 0 0 1 -21.10005,21.10003 21.100052,21.10005 0 0 1 -21.10006,-21.10003 21.100052,21.10005 0 0 1 21.10006,-21.10005 m 10.5499,-63.29997 a 31.649958,31.649954 0 0 1 31.64995,31.64995 31.649958,31.649954 0 0 1 -31.64995,31.64997 31.649958,31.649954 0 0 1 -31.64997,-31.64997 31.649958,31.649954 0 0 1 31.64997,-31.64995 m 52.75,105.4999 a 84.399956,84.399948 0 0 1 84.39995,84.39995 84.399956,84.399948 0 0 1 -84.39995,84.39994 84.399956,84.399948 0 0 1 -84.39997,-84.39994 84.399956,84.399948 0 0 1 84.39997,-84.39995 m -42.19986,-21.09988 v -21.10001 h 21.10001 v 21.10001 z m 10.55002,-21.10005 a 10.550008,10.550007 0 0 1 10.55,10.55001 10.550008,10.550007 0 0 1 -10.55,10.55 10.550008,10.550007 0 0 1 -10.55001,-10.55 10.550008,10.550007 0 0 1 10.55001,-10.55001 m 10.5498,42.20025 v -105.49999 h 105.5 v 105.49999 z m 52.75,-105.49998 a 52.75,52.749996 0 0 1 52.75,52.75 52.75,52.749996 0 0 1 -52.75,52.74998 52.75,52.749996 0 0 1 -52.75,-52.74998 52.75,52.749996 0 0 1 52.75,-52.75"
       style="display:inline;opacity:0.252805;fill:none;stroke:#000000;stroke-width:0.999996;stroke-linecap:round;stroke-miterlimit:4;stroke-dasharray:none"
       id="path973" />
  </g>
  <g
     inkscape:groupmode="layer"
     id="layer2"
     inkscape:label="matoruru"
     style="display:inline"
     sodipodi:insensitive="true">
    <g
       inkscape:groupmode="layer"
       id="g979"
       inkscape:label="branch"
       style="display:inline">
      <path
         sodipodi:nodetypes="ccccc"
         id="path947"
         d="m 96.151549,79.202582 c 0.824042,-6.37399 3.569163,-12.42657 9.804581,-18.68085 -3.81279,5.75182 -5.72085,10.48727 -5.85508,18.72044 -1.223495,-0.0466 -3.066598,-0.0338 -3.949501,-0.0396 z"
         style="opacity:1;fill:#cb4b16;fill-opacity:1;stroke:none;stroke-width:0.999999;stroke-linecap:round" />
      <g
         style="opacity:1;stroke:#cb4b16;stroke-opacity:1"
         id="g953"
         transform="translate(18.617187,-124.23871)">
        <path
           sodipodi:nodetypes="csc"
           d="m 81.48644,203.70589 c -0.002,-0.16219 -0.004,-0.3244 -0.004,-0.48661 0,-6.58831 2.04689,-13.00345 5.87217,-18.36751"
           style="display:inline;fill:none;stroke:#cb4b16;stroke-width:0.999998;stroke-linecap:round;stroke-miterlimit:4;stroke-dasharray:none;stroke-opacity:1"
           id="path949" />
        <path
           sodipodi:nodetypes="cc"
           d="m 77.4963,203.70524 c 1.01273,-7.23753 4.48285,-13.88679 9.85059,-18.8461"
           style="display:inline;fill:none;stroke:#cb4b16;stroke-width:0.999998;stroke-linecap:round;stroke-miterlimit:4;stroke-dasharray:none;stroke-opacity:1"
           id="path951" />
      </g>
    </g>
    <g
       inkscape:groupmode="layer"
       id="g1057"
       inkscape:label="leaf"
       style="display:inline">
      <path
         sodipodi:nodetypes="cccccc"
         id="path988"
         d="m 128.53504,20.690762 c -0.77327,2.61692 -1.31193,3.24757 -0.37709,7.03183 0.40857,1.40545 0.25987,1.19788 1.14195,1.40238 3.55778,0.20763 5.17807,0.38524 8.29961,-1.53301 0.90339,20.88993 -17.4315,33.55636 -31.64338,32.92977 -5.15144,-16.34798 4.74581,-35.74615 22.57891,-39.83097 z"
         style="opacity:1;fill:#859900;fill-opacity:1;stroke:none;stroke-width:0.05;stroke-linecap:round;stroke-miterlimit:4;stroke-dasharray:none" />
      <g
         style="fill:#586e75;fill-opacity:1"
         id="g1045"
         transform="translate(18.617187,-124.23871)">
        <path
           id="path1032"
           style="opacity:1;fill:#586e75;fill-opacity:1;stroke:none;stroke-width:2.99999;stroke-linecap:round;stroke-miterlimit:4;stroke-dasharray:none"
           d="m 87.980469,164.02734 a 25.575958,30.332275 4.082991 0 0 -1.011719,3.09961 l 28.37695,1.26758 a 31.889664,38.073364 31.468265 0 0 1.57032,-3.07617 z" />
        <path
           id="path1035"
           style="opacity:1;fill:#586e75;fill-opacity:1;stroke:none;stroke-width:2.99999;stroke-linecap:round;stroke-miterlimit:4;stroke-dasharray:none"
           d="m 86.136719,170.96484 a 25.575958,30.332275 4.082991 0 0 -0.359375,3.10743 25.575958,30.332275 4.082991 0 0 -0.002,0.0215 l 11.15239,0.49803 0.322266,-3.13086 z" />
        <path
           id="path1037"
           style="opacity:1;fill:#586e75;fill-opacity:1;stroke:none;stroke-width:2.99999;stroke-linecap:round;stroke-miterlimit:4;stroke-dasharray:none"
           d="m 97.25,171.46094 -3.011719,0.9082 3.964844,10.83984 a 31.889664,38.073364 55.581746 0 0 2.912105,-1.17773 z" />
        <path
           id="path1039"
           style="opacity:1;fill:#586e75;fill-opacity:1;stroke:none;stroke-width:2.99999;stroke-linecap:round;stroke-miterlimit:4;stroke-dasharray:none"
           d="m 102.49609,164.85547 -3.013668,0.9082 5.203128,14.22461 a 31.889664,38.073364 55.581746 0 0 0.58593,-0.39453 31.889664,38.073364 55.581746 0 0 2.06641,-1.50195 z" />
        <path
           id="path1041"
           style="opacity:1;fill:#586e75;fill-opacity:1;stroke:none;stroke-width:2.99999;stroke-linecap:round;stroke-miterlimit:4;stroke-dasharray:none"
           d="m 106.47852,150.71875 -8.083989,10.81445 3.791019,0.15625 6.82031,-9.125 z" />
        <path
           id="path1043"
           style="opacity:1;fill:#586e75;fill-opacity:1;stroke:none;stroke-width:2.99999;stroke-linecap:round;stroke-miterlimit:4;stroke-dasharray:none"
           d="m 111.61523,154.4707 -5.51757,7.38086 3.79296,0.15821 4.25391,-5.69336 z" />
      </g>
      <g
         style="opacity:1;stroke:#859900;stroke-opacity:1"
         id="g1055"
         transform="translate(18.617187,-124.23871)">
        <path
           id="path1047"
           style="display:inline;fill:none;stroke:#859900;stroke-width:1;stroke-linecap:round;stroke-miterlimit:4;stroke-dasharray:none;stroke-opacity:1"
           d="m 118.98232,151.83067 c 0.02,0.46278 0.0303,0.89317 0.0303,1.35847 0,17.47827 -14.16779,31.6478 -31.64603,31.64996"
           sodipodi:nodetypes="csc" />
        <path
           id="path1049"
           style="display:inline;fill:none;stroke:#859900;stroke-width:0.999996;stroke-linecap:round;stroke-miterlimit:4;stroke-dasharray:none;stroke-opacity:1"
           d="m 87.36234,184.83774 c -0.9077,-2.98504 -1.36903,-6.08789 -1.36903,-9.20788 0,-14.8149 10.17889,-27.2524 23.92454,-30.70039"
           sodipodi:nodetypes="csc" />
        <path
           id="path1051"
           style="display:inline;fill:none;stroke:#859900;stroke-width:0.999998;stroke-linecap:round;stroke-miterlimit:4;stroke-dasharray:none;stroke-opacity:1"
           d="m 109.97871,153.17443 c -0.57021,-1.32056 -0.86435,-2.74378 -0.86435,-4.18219 0,-1.3835 0.27475,-2.7843 0.80349,-4.06278"
           sodipodi:nodetypes="csc" />
        <path
           id="path1053"
           style="display:inline;fill:none;stroke:#859900;stroke-width:0.999998;stroke-linecap:round;stroke-miterlimit:4;stroke-dasharray:none;stroke-opacity:1"
           d="m 118.98232,151.83067 c -1.74312,1.1761 -3.79792,1.80447 -5.90069,1.80447 -1.0506,0 -2.09868,-0.15205 -3.10292,-0.46071"
           sodipodi:nodetypes="csc" />
      </g>
    </g>
    <g
       inkscape:groupmode="layer"
       id="layer1"
       inkscape:label="face"
       style="display:inline">
      <path
         sodipodi:nodetypes="ssscccssssssssssssssccccsss"
         id="path953"
         d="m 97.994405,184.37616 c -18.0452,-0.55227 -36.152322,-6.84422 -50.412872,-18.22669 -3.58316,-2.86 -11.084612,-9.90194 -10.928416,-10.37741 l 21.481778,-65.391588 -1.171768,-1.17103 -1.17177,-1.17103 0.879742,-2.75061 c 2.255481,-7.052 5.512429,-13.24552 9.35675,-19.19834 1.597219,-2.47325 5.152152,-7.17787 5.394571,-7.17787 0.225251,0 3.406341,4.06033 4.286941,5.4689 0.95156,1.52207 2.525081,4.77954 2.96543,6.15541 0.678061,2.11856 1.219486,3.40082 2.137106,4.73097 1.496349,2.16905 4.164175,3.57365 6.810046,4.07543 1.57752,0.29917 23.960827,0.13935 25.572927,-0.15956 1.84515,-0.34214 3.73107,-1.51044 5.11989,-2.89926 1.39676,-1.39676 1.9847,-2.69091 2.83504,-5.23912 1.12482,-3.37073 3.51915,-7.6296 5.86612,-10.41296 0.49515,-0.58722 1.54202,-1.79552 1.63584,-1.79552 0.29351,0 4.51079,5.94253 6.57237,9.22427 3.25379,5.17956 7.24874,14.37928 8.57245,18.64907 l 0.41208,1.32919 -1.05567,1.05499 c 0,0 -1.27734,1.27654 -1.28788,1.28707 l 21.42997,65.450378 -2.37422,2.58163 c -3.72179,4.04692 -21.63232,21.92534 -49.60192,25.22554 -3.51819,0.41512 -9.78345,0.84651 -13.324535,0.73814 z"
         style="opacity:1;fill:#b58900;fill-opacity:1;stroke:none;stroke-width:1;stroke-linecap:round" />
      <g
         style="opacity:1;stroke:#b58900;stroke-opacity:1"
         id="g1426"
         transform="translate(18.617187,-124.23871)">
        <path
           style="display:inline;fill:none;stroke:#b58900;stroke-width:0.999998;stroke-linecap:round;stroke-miterlimit:4;stroke-dasharray:none;stroke-opacity:1"
           d="m 18.03593,280.01077 21.48178,-65.3916"
           id="path1077-2" />
        <path
           sodipodi:nodetypes="cc"
           style="display:inline;fill:none;stroke:#b58900;stroke-width:0.999998;stroke-linecap:round;stroke-miterlimit:4;stroke-dasharray:none;stroke-opacity:1"
           d="m 37.17417,212.27712 2.34354,2.34206"
           id="path1075-8" />
        <path
           style="display:inline;fill:none;stroke:#b58900;stroke-width:0.999998;stroke-linecap:round;stroke-miterlimit:4;stroke-dasharray:none;stroke-opacity:1"
           d="m 144.67789,280.06956 c -16.02179,18.1638 -39.07482,28.5691 -63.29508,28.5691 -24.24759,0 -47.3239,-10.42871 -63.34688,-28.62788"
           id="path1069-3" />
        <path
           sodipodi:nodetypes="cc"
           d="m 52.73103,183.07459 c 3.67951,3.74197 6.41202,8.37273 7.87699,13.40638"
           style="display:inline;fill:none;stroke:#b58900;stroke-width:0.999998;stroke-linecap:round;stroke-miterlimit:4;stroke-dasharray:none;stroke-opacity:1"
           id="path1221" />
        <path
           sodipodi:nodetypes="cc"
           d="m 37.17416,212.27712 c 3.20275,-10.64315 8.51556,-20.60287 15.55687,-29.20253"
           style="display:inline;fill:none;stroke:#b58900;stroke-width:1;stroke-linecap:round;stroke-miterlimit:4;stroke-dasharray:none;stroke-opacity:1"
           id="path1181" />
        <path
           sodipodi:nodetypes="csc"
           d="m 70.76526,203.70489 -0.14526,-1e-5 c -4.54497,-3.1e-4 -8.57909,-2.91073 -10.01198,-7.22391"
           style="display:inline;fill:none;stroke:#b58900;stroke-width:0.999998;stroke-linecap:round;stroke-miterlimit:4;stroke-dasharray:none;stroke-opacity:1"
           id="path1218" />
        <path
           id="path1238"
           style="display:inline;fill:none;stroke:#b58900;stroke-width:0.999998;stroke-linecap:round;stroke-miterlimit:4;stroke-dasharray:none;stroke-opacity:1"
           d="m 110.03457,183.07459 c -3.67951,3.74197 -6.41202,8.37273 -7.87699,13.40638"
           sodipodi:nodetypes="cc" />
        <path
           id="path1242"
           style="display:inline;fill:none;stroke:#b58900;stroke-width:0.999998;stroke-linecap:round;stroke-miterlimit:4;stroke-dasharray:none;stroke-opacity:1"
           d="m 92.00035,203.70489 0.14526,-1e-5 c 4.54496,-3.1e-4 8.57908,-2.91073 10.01197,-7.22391"
           sodipodi:nodetypes="csc" />
        <path
           id="path1643"
           d="m 144.72969,280.01077 -21.48177,-65.3916"
           style="display:inline;fill:none;stroke:#b58900;stroke-width:0.999998;stroke-linecap:round;stroke-miterlimit:4;stroke-dasharray:none;stroke-opacity:1" />
        <path
           id="path1645"
           d="m 125.59145,212.27712 -2.34353,2.34206"
           style="display:inline;fill:none;stroke:#b58900;stroke-width:0.999998;stroke-linecap:round;stroke-miterlimit:4;stroke-dasharray:none;stroke-opacity:1"
           sodipodi:nodetypes="cc" />
        <path
           id="path1647"
           style="display:inline;fill:none;stroke:#b58900;stroke-width:1;stroke-linecap:round;stroke-miterlimit:4;stroke-dasharray:none;stroke-opacity:1"
           d="m 125.59147,212.27712 c -3.20276,-10.64315 -8.51556,-20.60287 -15.55688,-29.20253"
           sodipodi:nodetypes="cc" />
        <path
           id="path1651"
           d="M 70.76526,203.70489 H 92.00035"
           style="fill:none;stroke:#b58900;stroke-width:1px;stroke-linecap:butt;stroke-linejoin:miter;stroke-opacity:1" />
      </g>
    </g>
    <g
       inkscape:groupmode="layer"
       id="g986"
       inkscape:label="eyes"
       style="display:inline">
      <ellipse
         ry="3.023047"
         rx="3.0876026"
         cy="117.31264"
         cx="85.067093"
         id="ellipse922"
         style="display:inline;opacity:1;fill:#073642;fill-opacity:1;stroke:#073642;stroke-width:1.5;stroke-linecap:round;stroke-miterlimit:4;stroke-dasharray:none;stroke-opacity:1" />
      <ellipse
         style="display:inline;opacity:1;fill:#073642;fill-opacity:1;stroke:#073642;stroke-width:1.5;stroke-linecap:round;stroke-miterlimit:4;stroke-dasharray:none;stroke-opacity:1"
         id="ellipse924"
         cx="114.90703"
         cy="117.33855"
         rx="3.0876026"
         ry="3.023047" />
      <path
         d="M 121.07418,132.24555 A 21.10005,21.100052 0 0 1 99.974131,153.3456 21.10005,21.100052 0 0 1 78.874082,132.24555"
         style="display:inline;opacity:1;fill:none;stroke:#073642;stroke-width:4;stroke-linecap:round;stroke-miterlimit:4;stroke-dasharray:none;stroke-opacity:1"
         id="path926" />
    </g>
  </g>
</svg>
